<?xml version="1.0"?>
<svg xmlns:rdf="http://www.w3.org/1999/02/22-rdf-syntax-ns#" xmlns="http://www.w3.org/2000/svg" xmlns:cc="http://creativecommons.org/ns#" xmlns:dc="http://purl.org/dc/elements/1.1/" xmlns:svg="http://www.w3.org/2000/svg" id="svg2" viewBox="0 0 576.33001 367.96518" version="1.1">
  <defs id="defs4">
    <linearGradient id="linearGradient3869" y2="828.08" gradientUnits="userSpaceOnUse" x2="454.29" y1="875.22" x1="403.57">
      <stop id="stop3873" stop-color="#808285" offset="0"/>
      <stop id="stop3875" stop-color="#1a1a1a" offset="1"/>
    </linearGradient>
    <linearGradient id="linearGradient3883" y2="785.22" gradientUnits="userSpaceOnUse" x2="459.29" y1="858.79" x1="402.86">
      <stop id="stop3879" stop-color="#fff" offset="0"/>
      <stop id="stop3881" stop-color="#fff" stop-opacity="0" offset="1"/>
    </linearGradient>
    <linearGradient id="linearGradient3893" y2="736.65" gradientUnits="userSpaceOnUse" x2="530.71" gradientTransform="translate(4.0406,-4.0406)" y1="803.79" x1="485">
      <stop id="stop3889" stop-color="#ff0" offset="0"/>
      <stop id="stop3891" stop-color="#ff0" stop-opacity="0" offset="1"/>
    </linearGradient>
    <linearGradient id="linearGradient3903" y2="749.82" gradientUnits="userSpaceOnUse" x2="382.34" y1="768.51" x1="167.18">
      <stop id="stop3899" stop-color="#ff0" offset="0"/>
      <stop id="stop3901" stop-color="#ff0" stop-opacity="0" offset="1"/>
    </linearGradient>
    <linearGradient id="linearGradient3913" y2="781.64" gradientUnits="userSpaceOnUse" x2="235.37" y1="763.46" x1="180.82">
      <stop id="stop3909" stop-color="#999" offset="0"/>
      <stop id="stop3911" stop-color="#999" stop-opacity="0" offset="1"/>
    </linearGradient>
    <linearGradient id="linearGradient3923" y2="655.37" gradientUnits="userSpaceOnUse" x2="371.74" y1="718" x1="270.72">
      <stop id="stop3919" stop-color="#86bbef" offset="0"/>
      <stop id="stop3921" stop-color="#3e7dbc" offset="1"/>
    </linearGradient>
    <linearGradient id="linearGradient3941" y2="699.82" gradientUnits="userSpaceOnUse" x2="591.95" y1="766.49" x1="495.98">
      <stop id="stop3937" stop-color="#3e7dbc" offset="0"/>
      <stop id="stop3939" stop-color="#316395" offset="1"/>
    </linearGradient>
  </defs>
  <g id="layer1" transform="translate(-137.55 -525.52)">
    <path id="path2384" d="m397.48 876.59c44 0 39.4 5.46 54.07-3 25.06-14.45 48.96-47.59 56-53 14.66-11.27 58.64-30.15 87-48 28.35-17.85 59-33 70-40 6.33-4.03 27.91-9.6 24-19-3.91-9.39-5.57-23-5.57-23l-314.84 39.46s-190.66 62-193.59 64.81c-2.94 2.82 107.22 67.64 116.35 68.58s67.47-3.76 67.47-3.76l17.6 11.27 21.51 5.64z" fill="#bcbec0"/>
    <path id="path2386" stroke="#000" stroke-width="3" fill="#606568" d="m485.88 817.93c-8.33 0.66-18 0.16-18 0.16s-19-58.5-24.5-58.5 29.5-9.5 34.5 8.5 8 49.84 8 49.84"/>
    <path id="path2395" stroke="#000" stroke-width="4" d="m645.8 701.84c0-16.98 11.76-30 23.5-30 11.73 0 21.25 13.77 21.25 30.75s-9.56 31.75-21.25 30.75c-23.5-2-23.5-14.52-23.5-31.5z"/>
    <path id="path2397" stroke="#000" stroke-width="4" d="m356.55 844.09c0-26.23 21.82-47.5 48.75-47.5 26.92 0 48.75 21.27 48.75 47.5s-17.22 51.51-47.17 46.83c-32-5-50.33-20.6-50.33-46.83z"/>
    <path id="path2399" stroke="#000" stroke-width="6" fill="#4a91d8" d="m488.21 814.93-1.33-16.01s-2-18-5.33-26c-3.34-8-11.34-17.33-18-18-6.67-0.66-16.67-0.66-34.67 9.34s-28 27.33-33.33 41.33c-5.34 14-17 41.5-23.34 52-3.17 5.26-8 6.67-10 4.67s-9.33-3.34-19.33-3.34-14.67-4.66-27.33-8c-12.67-3.33-14-10-14-10s-43.33-16-54.67-19.33c-11.33-3.33-32-14-37.33-17.33-5.33-3.34-29.33-22-31.33-24s-12.67-10.67-12.67-10.67l-5.34 0.67-5.33-6.67-2-27.33s-11.68-36.5-9.33-40c8.5-12.67 45.77-23.21 60.25-26.92 25.85-6.62 101.08-27.08 131.75-32.42 30.66-5.33 35.33-6 35.33-6s86.67-15.33 103.33-18.66c16.67-3.33 82.67-12.67 82.67-12.67s3.33-1.33 8 1.33c4.67 2.67 2 5.34 2 5.34s14 0.66 28.67 1.33c14.66 0.67 50 1.33 61.33 5.33s18.33 8.67 18.33 8.67l23.67-7.33 5.33 6s6.67-0.67 6.67 11.33-4 38.67-4 38.67l-6.67 16s-5.33 12-6-2c-0.66-14-6.66-27-10.66-27.67s-7 1-13.34 10.33c-7.45 11-5.33 15.34-7.33 26-2 10.67-8 27.34-6 22.67 1.61-3.76-99.49 60.25-168.67 99.34z"/>
    <path id="path2401" stroke="#000" stroke-width="4" fill="#636466" d="m554.21 658.26v-46.67s15.34 0 23.84 1.5c7.68 1.36 37.5 7.17 42.83 7.83 5.33 0.67 19.33 2 19.33 2s-3.33 8-18 12.67c-14.66 4.67-68 22.67-68 22.67z"/>
    <path id="path2408" stroke="#000" stroke-width="4" fill="url(#linearGradient3941)" d="m448.55 747.93c2.85-11.43 6.28-12.45 22.83-20.17 10-4.67 18-8 18-8l196.67-81.34 1.5 13.42s-9.5-9.5-23 5c-5.23 5.62-10.35 16.16-12 25.25-2.53 13.9-1.67 28.17-1.67 28.17l-156.83 86.83s-0.84-12.5-4.17-23.83-9.33-19-16-22.34c-6.67-3.33-25.33-2.99-25.33-2.99z"/>
    <path id="path2410" stroke="#000" stroke-width="4" fill="none" d="m555.21 658.26c1 8 0.34 30.67 0.34 44s-8.34 65.33-8.34 65.33"/>
    <path id="path2412" stroke="#000" stroke-width="4" fill="none" d="m619.05 636.59c6 3.33 17.16 8.33 18.5 21 1.33 12.67-4.5 62-4.5 62"/>
    <path id="path2414" d="m166.21 726.92c0-4.66 5.34-12.66 13.34-19.33s90-36.67 90-36.67l-88 43.34-15.34 12.66z" fill="#008fd5"/>
    <path id="path2428" d="m390.05 819.59c7-28.5 35.49-63.5 62-63.5s33.41 23.66 29 57.75c-4.5 34.75-34.99 75.25-61.5 75.25s-37.7-36.11-29.5-69.5z" fill-opacity=".97674" stroke="#000" stroke-width="4" fill="#333"/>
    <path id="path2432" stroke="#000" stroke-width="4" fill="none" d="m372.88 630.92s6.04-0.91 25.17 1.17c23 2.5 61.5 9.17 61.5 9.17l63.33 20.33 9.67-2h11.5"/>
    <path id="path2439" stroke="#000" stroke-width="4" fill="url(#SVGID_5_)" d="m626.55 630.59c-9-7-34.5-12.5-44-15s-25.5-3.5-25.5-3.5l-62-2.5s-15.5 8-18.5 11.5-7 13.5-7 13.5 11.5-3.5 22-1.5 26.5 3.5 30.5 8 12 15.5 12 15.5l11 1.5 11.5-0.5 70-27z"/>
    <path id="path2446" stroke="#000" stroke-width="4" fill="url(#SVGID_6_)" d="m609.55 624.59c-9 5-10.5 14.5-10.5 14.5"/>
    <path id="path2453" stroke="#000" stroke-width="4" fill="url(#SVGID_7_)" d="m592.05 619.59c-6 5-11 14-11 14"/>
    <path id="path2460" stroke="#000" stroke-width="4" fill="url(#SVGID_8_)" d="m578.05 613.09c-8 8.5-23.5 43-23.5 43"/>
    <path id="path2483" stroke="#000" stroke-width="4" fill="none" d="m483.05 631.59c5.5-10 19.5-20.5 19.5-20.5"/>
    <path id="path2485" stroke="#000" stroke-width="4" fill="none" d="m498.05 631.59c6.5-10 21.5-20 21.5-20"/>
    <path id="path2487" stroke="#000" stroke-width="4" fill="none" d="m517.05 636.09c4-7 18.5-24.5 18.5-24.5"/>
    <line id="line2491" stroke-width="4" x1="549.55" x2="533.05" stroke="#000" y1="624.09" y2="653.09" fill="none"/>
    <line id="line2493" stroke-width="4" x1="372.88" x2="405.55" stroke="#000" y1="630.92" y2="590.59" fill="none"/>
    <path id="path2502" stroke="#000" stroke-width="4" fill="#1a1a1a" d="m692.3 693.27c0 19.42-8.88 38.82-16.17 38.82-7.3 0-18.33-10.8-18.33-30.22 0-19.43 14-43.78 21.29-43.78s13.21 15.75 13.21 35.18z"/>
    <ellipse id="ellipse2504" d="m 562,340.75 c 0,12.56448 -3.35786,22.75 -7.5,22.75 -4.14214,0 -7.5,-10.18552 -7.5,-22.75 0,-12.56448 3.35786,-22.75 7.5,-22.75 4.14214,0 7.5,10.18552 7.5,22.75 z" cy="340.75" rx="7.5" ry="22.75" transform="translate(120.55,350.59)" stroke="#000" cx="554.5" stroke-width="4" fill="#808080"/>
    <path id="path2511" stroke="#000" stroke-width="4" fill="url(#SVGID_13_)" d="m501.55 668.92c-5.34 4-44.67 14.67-60.67 18.67s-134.67 37.33-134.67 37.33-7.33 2-13.33 2-2.67 1.34-15.33-1.33c-12.67-2.67-47.34-16-51.34-16.67-4-0.66-12.66-6.66-12.66-6.66l1.33-4 29.33-12.67-1-5.67 49.67-17s38.67-14.66 48.67-18.66 22.67-7.34 22.67-7.34 9.33-0.66 28.66 0.67 37.64 3.93 52 7.33c19.67 4.67 28 6 37.33 10.67 9.34 4.67 19.34 13.33 19.34 13.33z"/>
    <path id="path2522" stroke="#000" stroke-width="4" fill="#916f6f" d="m565.21 582.92c1.22 0.69 6-0.66 20 4.67 9.86 3.75 3.67 0.67 15.34 6.67 9.15 4.71 27.75 38.41 30.66 43.67 5 9 10.16 27.27-2.33 32.66-14.67 6.33-58.33-15.67-58.33-15.67l-6.34 0.67-7.16 0.5h-19.5s-17.34-15.67-23.34-18.17-34.66-7.83-34.66-7.83 15.25-41.75 24.5-41.25c6.51 0.35 1.75-1.25 11.75-0.75s6.75 5 6.75 5l42.66-10.17z"/>
    <ellipse id="ellipse2524" d="m 454.10601,234.31 c 0,1.40888 -1.18913,2.551 -2.656,2.551 -1.46687,0 -2.656,-1.14212 -2.656,-2.551 0,-1.40888 1.18913,-2.551 2.656,-2.551 1.46687,0 2.656,1.14212 2.656,2.551 z" cy="234.31" rx="2.656" ry="2.551" transform="matrix(-.9901 -.1405 .1405 -.9901 986.04 880.33)" stroke="#000" cx="451.45" stroke-width="3" fill="#e5e2e1"/>
    <path id="path2526" stroke="#000" stroke-width="3" d="m513.59 595.34c-4.36 1.05-9 2.06-9 2.06l9-2.06z"/>
    <path id="path2528" stroke="#000" stroke-width="2" fill="none" d="m487.31 594.44c4.57 2.23 6.73 3.04 8.43 3.29 1.71 0.24 3.63 0.33 3.63 0.33"/>
    <path id="path2530" stroke="#000" stroke-width="4" fill="#977348" d="m569.55 592.34c-2.25 2.5-13.25 5.25-13.25 5.25s-15 0.75-19-0.75 1.5 30.5 1.5 30.5 22.51-15.61 27-19c13.25-10 17.08-19.92 7.25-26.75 0 0-1.25 8.25-3.5 10.75z"/>
    <path id="path2532" stroke="#000" stroke-width="4" fill="#755532" d="m525.05 594.09c-4 4.5-18.84 23.5-18.84 23.5s-7-3.67-9-7.67c-2.1-4.21 5.09-21.58 5.09-21.58s9.25 3 13.25 1 7 3.75 7 3.75l2.5 1z"/>
    <polygon id="polygon2539" points="582.5 271.5 576.5 265 525.5 281.5" transform="translate(120.55,350.59)" fill="url(#SVGID_15_)"/>
    <path id="path2548" d="m415.57 858.04c24.35 4.83 41.12-27.45 40.98-26.17-1.99 18.4-22.77 35.74-39.83 35.74-17.05 0-23.91-13.29-20.63-34.34 1.81-11.58 4.31 21.76 19.48 24.77z" fill="url(#SVGID_16_)"/>
    <path id="path2571" stroke="#fff" stroke-width="3" fill="#f00" d="m490.85 729.11c3.23-1.8 3.64-2.32 7.79-2.43 0 0 4.06 0.13 3.55 0.2-0.5 0.07 3.83 0.25 6.32-2.61 2.9-3.32 6.57-4.63 10.78-3.29-4.87 0.62-5.3 2.93-7.14 7.15-0.85 1.95-2.93 3-0.82 4.53 3.77 2.74 5.44-2.55 7.24-4.83 3.23-4.08 6.11-5.88 11.17-5.25 5.46 0.67 8.07-2.08 11.56-6.09-2.33 5.58-5.67 7.17-10.03 10.44-5 3.73-2.41 8.2 3.41 7.52 5.98-0.69 9.04-6.69 13.76-9.83 5.78-3.86 12.27-4.7 19.12-3.46 7.41 1.35 13.34 1.88 18.11-4.86-5.65 13.96-21.45 6.79-29.42 16.47-2.11 2.57-3.5 4.65-6.37 6.4 2.44 1.09 6.15 0.1 8.61-0.14 2.9-0.27 5.46-1.86 7.69-3.53-3.59 3.25-6.19 6.09-10.83 7.78-4.65 1.7-8.07 2.14-10.52 7.11 1.95-0.96 6.31 0.92 10.15 1.79 2.4 0.55 4.61 0.21 5.89 0.19 3.5-0.06 17.5-8.16 19.91-10.22-3.86 2.06-15.07 13.78-19.54 15.15-1.28 0.4-3.6 1.68-6.65 1.58-4.81-0.15-10.75-1.67-12.05 0.23-1.49 2.2-1.61 3.04-3.96 4.65 3.14 1.25 4.22 3.52 8.04 3.03 3.1-0.4 6.65-2.31 9.07-4.24-2.57 4.25-8.97 7.18-13.33 8.45-4.95 1.45-11.75-1.9-16.13 1.47-2 1.54-4.93 1.64-5.98 5.08 2.63-2.63 7.9 0.16 11.1 0.82 2.98 0.62 5.83-0.56 9.41-0.44-2.18 2.29-12.51 8.62-12.51 8.62l-12 7-24.34 13.67c-0.33-20.33-6.64-42.51-9.33-46.67-3.67-5.66-5.17-11.67-32-11.5 0 0 23.18-14.83 35.58-14.81 4.44 0.01 4.69-5.13 4.69-5.13z"/>
    <path id="path2594" stroke="#fff" stroke-width="3" fill="#f00" d="m587.13 696.8c2.44-2.9 9.15-1.16 11.6-1.64 2.45-0.49 6.73-4.36 6.73-4.36s-4.08 9.44-6.52 9.92c-2.45 0.49-1.84-0.24-7.95 0.97-6.12 1.21-10.2 4.11-10.2 4.11l6.34-9"/>
    <path id="path2603" stroke="#fff" stroke-width="3" fill="#f00" d="m363.55 864.59c-12.5 0-57-11-86.5-22.5s-82-42.5-88-48-23.5-23-23.5-23l-5.34 0.67-6.66-8.67 1.5-24.5s-1.5-38.5-3.5-42 13-11 25.5-15 27.4-9.7 39.5-13c11-3 32.5-2 32.5-2s-17.94 11.36-25.5 11c-10.5-0.5-16.5 6.5-19.5 9.5s5-1.5 12.5-2.5 10-3.5 10-3.5-11 13-17 14.5-8 11-8 13 10.5 3 12 0.5 23-5 23-5-6 10-9 14-17 7.5-17 7.5l-4.5 4.5s0.5 4 17.5-2.5 11-11 22.25-14.75c14.1-4.7 35.75-6.5 35.75-6.5s-10.96 13.35-20.5 13.75c-6 0.25-12.5 5-14 9.5s-6.5 10-3 10.5 9.5-2 21.5-7.5 33.5-6.5 35.5-6.5 25-3 25-3-27 10-33.5 11-23 9-24 12.5 2.5 8 6 8.5 12.91-1.26 16-4.5c5.25-5.5 21-12.5 21-12.5l15.5-4.5s16.5-3 18.5-4 14-3 14-3-9 8-17 10.5-19 7.5-21 10.5 6.57 4.28 11.75 0.75c11.75-8 26-9.75 26-9.75s-10.75 14.5-22.75 19.25c-5.83 2.31 12.25 15.75 15.5 3.75 7.19-26.56 43.5-44 45-44.5s-18.5 27-7.5 27 21.5-9.5 30.5-14.5 25-11 25-11-16.67 24.67-40.5 34.5c-9.71 4.01-17.17 21.34-17.17 21.34s13.4-10.83 24.67-13.84c7.5-2 23.16-4.67 23.16-4.67s-26.66 16.17-35.66 30.67c-5.34 8.6-10.5 22.61-13.34 33-2 7.34-2.66 7-6.16 18.5-2.03 6.66-6.83 15.1-8.5 19-1.5 3.5-8 7.5-8 7.5z"/>
    <path id="path2612" stroke="#000" stroke-width="4" fill="#bcbec0" d="m363.55 864.92c-0.67 5.34-3.17 8.62-15.34 12.67-10 3.34-24.66 5.33-45.33-2-15.19-5.39-63.33-24.67-82.67-34.67-19.33-10-49-34.5-56.66-41.33-7.67-6.83-17.34-16-20.67-22.67-3.33-6.66-0.67-5.99 2-10.66s8.67-4.67 8.67-4.67l6.66 8.67 5.34-0.67s39.1 31.97 47.33 36.67c14 8 29.33 12.67 44.67 19.33 5.26 2.29 44 15.33 44 15.33s1.33 4.01 6.66 7.34c5.34 3.33 22.67 12.67 24 10 1.34-2.67 10-1.34 16 0.66s14 3.34 14 3.34l1.34 2.66z"/>
    <ellipse id="ellipse2614" d="m 39,365.32999 c 0,11.96635 -4.477153,21.667 -10,21.667 -5.522847,0 -10,-9.70065 -10,-21.667 0,-11.96636 4.477153,-21.667 10,-21.667 5.522847,0 10,9.70064 10,21.667 z" cy="365.33" rx="10" ry="21.667" transform="translate(120.55,350.59)" stroke="#000" cx="29" stroke-width="4" fill="#0072bc"/>
    <ellipse id="ellipse2616" d="m 33.666,363.32999 c 0,10.49341 -3.283096,19 -7.333,19 -4.049904,0 -7.333,-8.50659 -7.333,-19 0,-10.49341 3.283096,-19 7.333,-19 4.049904,0 7.333,8.50659 7.333,19 z" cy="363.33" rx="7.333" ry="19" transform="translate(120.55,350.59)" stroke="#000" cx="26.333" stroke-width="4" fill="#fff"/>
    <ellipse id="ellipse2618" d="m 210.33,430.5 c 0,15.27951 -8.50659,27.666 -19,27.666 -10.49341,0 -19,-12.38649 -19,-27.666 0,-15.27951 8.50659,-27.666 19,-27.666 10.49341,0 19,12.38649 19,27.666 z" cy="430.5" rx="19" ry="27.666" transform="translate(120.55,350.59)" stroke="#000" cx="191.33" stroke-width="4" fill="#0072bc"/>
    <path id="path2626" opacity=".68" d="m291.21 759.92c2-4.33 17-18.66 27-23 10-4.33 78.84-28 78.84-28l-83 36s-2.5 1.67-9.17 4.34c-6.67 2.66-13.67 10.66-13.67 10.66" fill="#0072bc"/>
    <line id="line2630" opacity=".44" x1="547.55" x2="554.88" stroke="#000" stroke-width="3" y1="765.92" y2="718.26" fill="none"/>
    <line id="line2632" opacity=".54" x1="216.21" x2="271.55" stroke="#000" stroke-width="4" y1="703.92" y2="724.59" fill="none"/>
    <path id="path2634" opacity=".54" d="m278.55 725.92c11 2.34 34-2 40.66-5" stroke="#000" stroke-width="4" fill="none"/>
    <path id="path2636" stroke="#000" stroke-width="3" fill="none" d="m570.55 654.92c-1.67-5 0-13.33 0-13.33s-0.34-3 5-4.67c10.42-3.25 23-1.66 30 2 7 3.67 4.33 5.67 4.33 5.67"/>
    <path id="path2638" stroke="#000" stroke-width="3" fill="none" d="m581.21 614.59c0 7.33 0.67 6.67 1.34 11 0.66 4.33 6.66 10 6.66 10"/>
    <path id="path2640" stroke="#000" stroke-width="3" fill="#989898" d="m569.88 640.26c-4.67 1.33-9.78 4.85-10.67 9-1 4.67 0.34 6.67 0.34 6.67l10-2 0.33-13.67z"/>
    <g id="g2642" stroke="#000" stroke-width="4" transform="translate(120.55,350.59)">
      <path id="path2644" d="m465.56 306.5 4-10.74-1.63-5.12s-13.64-6.33-15.92-2.04c-2.29 4.28-5.26 7.05-1.4 11.29 3.87 4.23 14.95 6.61 14.95 6.61z" fill="#bcbec0"/>
      <path id="path2646" d="m456.04 295.25c-1.61-2.04-6.83-3.16-6.83-3.16l-17.08 16.11s-0.91 4.24 0.39 4.52c1.31 0.28 23.52-17.47 23.52-17.47z" fill="#fff"/>
      <path id="path2648" d="m469.56 295.76s-1.56-5.44-3.12-6.12c-1.56-0.67-3.28 1-7.94 2.05-4.65 1.05-4.93 2.35-5.63 5.61s5.01 6.87 5.01 6.87l7.68 2.33 4-10.74z" fill="#fff"/>
    </g>
    <path id="path2650" stroke="#000" stroke-width="4" fill="#977348" d="m529.55 594.34c-2.5 7.75-7.24 21.85-9.75 28.25-2.75 7-4 15.75-4 15.75"/>
    <path id="path2657" stroke="#000" stroke-width="4" fill="url(#SVGID_21_)" d="m555.21 658.75s-0.31-47.1-1.66-52.48c-1-3.97-34.97-11.18-44-13.05-26-5.39-73.5-5.63-89.5-5.63-4.67 0-16.17 3.36-16.17 3.36s43 1.42 61 1.98c15.83 0.5 21.33 2.27 40 4.54 19.85 2.42 37.33 8.51 39 10.5 2.17 2.58 0.17 51.62 0.17 51.62l11.16-0.84z"/>
    <path id="path2659" stroke="#000" stroke-width="3" fill="#c1272d" d="m464.97 638.42c0.05-0.29 0.11-0.58 0.18-0.87 2.57-10.77 16.98-17.18 32.77-14.4 16.21 2.85 27.75 14.31 25.76 25.6l5.81-1.02c2.33-13.28-11.24-26.77-30.33-30.13-19.08-3.36-36.44 4.69-38.78 17.98l4.59 2.84z"/>
    <path id="path2661" stroke="#000" stroke-width="4" fill="#636466" d="m530.05 649.59c-3.34-4-3.84-7-12.5-11.5-8.67-4.5-19-8.17-31.34-8.5-8.99-0.24-15.83 0-22.16 3-3.25 1.54-7 8.5-7 8.5s38.5 9.5 43.5 11.17 22.33 9.33 22.33 9.33l9.67-2s0.83-6-2.5-10z"/>
    <path id="path2663" stroke="#000" stroke-width="2" fill="#636466" d="m490.71 617.59c-0.5-2-3.83-4.67-5.5-4.67-1.66 0-3 1.34-4.66 2.5-1.67 1.17-2-1.5-4.84-0.83-1.39 0.33-2.5 3.85-3.83 3.67-2.5-0.33-3.17 2-3.33 3.17-0.57 3.98 2.66 8 2.66 8s3.76-0.66 4.34-0.84c5.33-1.66 8.16-1.16 8.66-1 0.5 0.17 3.5-1.16 3.5-1.16s-0.16-1-1.66-3.67-1.84-4-0.5-4.33c1.33-0.34 2.66-0.34 2.66-0.34l2.5-0.5z"/>
    <path id="path2665" stroke="#000" stroke-width="2" fill="#636466" d="m491.88 624.26c-1.67-1-3.33-1.17-6.17-1.33-2.83-0.17-3.5 1.66-3.5 2.33 0 0.66 0.67 1.5 2.67 2.17 2 0.66 5 0.83 6.33 0.5 1.34-0.34 1.84-0.67 1.5-1.84-0.33-1.16-0.83-1.83-0.83-1.83z"/>
    <g id="g2667" transform="translate(120.55,350.59)">
      <linearGradient id="SVGID_22_" y2="187.9" gradientUnits="userSpaceOnUse" x2="415.52" y1="187.9" x1="393.66">
        <stop id="stop2670" stop-color="#636466" offset=".1517"/>
        <stop id="stop2672" stop-color="#7B7D7F" offset=".2996"/>
        <stop id="stop2674" stop-color="#96989B" offset=".5038"/>
        <stop id="stop2676" stop-color="#AAACAF" offset=".695"/>
        <stop id="stop2678" stop-color="#B7B9BC" offset=".866"/>
        <stop id="stop2680" stop-color="#BCBEC0" offset="1"/>
      </linearGradient>
      <path id="path2682" stroke="#000" stroke-width="3" fill="url(#SVGID_22_)" d="m413.41 177.84c-1.5-1.33-2.86-1.57-4.23-1.33s-3.98 1.21-6.1 3.37c-2.11 2.17-2.85 2.53-4.47 3.25s-3.86-0.6-4.48 2.77-0.5 7.94-0.37 10.59c0.12 2.65 0.99 2.89 0.99 2.89l0.75-1.08s-0.38-2.77 0.12-4.34c0.5-1.56 2.12-2.4 2.74-2.89 0.62-0.48 1.37-0.48 3.36-1.8 1.98-1.33 2.61-2.05 3.48-3.73 0.87-1.69 2.23-3.25 3.6-4.45 1.37-1.21 2.86-2.41 3.98-2.29s2.74-0.12 2.74-0.12l-2.11-0.84z"/>
      <path id="path2684" stroke="#000" stroke-width="2" fill="#b54e26" d="m409.68 179.4c0-0.48 0.12-0.96-0.63-0.96-0.74 0-1.49 0.36-2.11 1.32-0.62 0.97-1.74 2.29-2.61 3.85-0.87 1.57-1.24 2.41-1.86 3.25-0.63 0.85-1.68 1.44-2.24 1.93-1.25 1.08-1.87 2.29-1.87 2.29s4.85-2.05 5.72-3.37c0.87-1.33 1.62-2.05 2.86-4.7 0.44-0.94 2.86-2.64 2.86-2.64l-0.12-0.97z"/>
      <g id="g2686" stroke="#000" stroke-width="3">
        <polygon id="polygon2688" points="461.2 219.02 458.46 213.94 459.58 214.04 460.13 213.98 470.51 212.74" fill="#f7941e"/>
        <path id="path2690" d="m408.46 235.96c-7.81 7.76-8.16 7.69-8.16 7.69l9.95-2.96-1.79-4.73z" fill="#f7941e"/>
        <path id="path2692" d="m458.3 213.62c-5.29 8.3-8.22 10.8-11.69 12.82s-19.68 9.16-24.8 9.38-11.19 0.75-11.8 0.63-1.1-2.05-1.64-0.69c-0.53 1.37 1.38 4.94 2.43 6.62 1.04 1.68-0.74 2.31 6.52 3.36 7.27 1.06 10.38 1.76 18.22-0.51 7.83-2.27 13.14-6.23 16.31-8.68 3.18-2.45 6.62-4.96 7.45-7.13 0.84-2.17 2.02-6.61 2.19-7.43 0.17-0.83-0.45-4.51-0.81-5.2-0.36-0.68-2.38-3.17-2.38-3.17z" fill="#f7941e"/>
        <path id="path2694" d="m419.22 240.41c1.43 4.97 2.39 6 2.39 6l3.17-6.37s-1.03-1.67-1.5-1.77c-3.59-0.78 1.59-1.5-2.58 0.09-0.66 0.26-1.48 2.05-1.48 2.05z" fill="#fff"/>
        <path id="path2696" d="m451.9 221.23 7.46 5.18-9.28 0.21s-0.56-1.3-0.34-2.44c0.21-1.14 1.01-2.54 1.34-2.86 0.33-0.33 0.82-0.09 0.82-0.09z" fill="#f7941e"/>
        <path id="path2698" d="m437.06 237.54c1.06 2.94 1.54 1.39 6.09 6.81l-0.01-9.82s-1.83-1.26-2.4-1.15c-0.57 0.12-2.22 0.75-2.85 1.32-0.63 0.58-0.83 2.84-0.83 2.84z" fill="#fff"/>
      </g>
      <path id="path2700" stroke="#000" stroke-width="2" fill="#b54e26" d="m449.46 202.51s0.38-6.38-0.24-7.83c-0.63-1.44-3.49-4.33-4.11-4.45s-1.24-0.48-1.24 0.36c0 0.85 1.12 2.65 1.74 3.85 0.62 1.21 1.61 1.81 2.49 3.49 1.05 2.05 0.74 4.58 0.74 4.58h0.62z"/>
      <path id="path2702" stroke="#000" stroke-width="2" fill="#e2832c" d="m381 230.64 0.8 4.47s2.4 2.83-0.04 0.86c-1.43-1.16-1.91-2.74-3.35-4.52l-0.2-3.86 2.79 3.05z"/>
      <path id="path2704" stroke="#000" stroke-width="2" fill="#a35c6a" d="m418.38 236.74c-0.48-1.03-1.32-2.96-2.75-2.45-1.44 0.52-2.4 0.13-5.75 1.16-2.07 0.64-4.9 1.55-6.82 2.32-1.91 0.78-6.34 0.65-7.77 0.13-1.44-0.52-6.62-0.73-8.62-1.8-2.87-1.55-5.38-4.13-5.38-4.13 0.23 2.58-0.72 5.16 1.43 6.71 2.16 1.54 8.26 3.6 10.41 3.35 2.16-0.26 5.98 0.25 8.62-1.03 2.63-1.29 3.83-0.52 6.22-0.52s5.39-2.06 6.1-2.32c0.72-0.26 3.71-2.32 3.71-2.32"/>
      <linearGradient id="SVGID_23_" y2="210.66" gradientUnits="userSpaceOnUse" x2="475.95" y1="210.66" x1="378.34">
        <stop id="stop2707" stop-color="#636466" offset=".1517"/>
        <stop id="stop2709" stop-color="#7B7D7F" offset=".2996"/>
        <stop id="stop2711" stop-color="#96989B" offset=".5038"/>
        <stop id="stop2713" stop-color="#AAACAF" offset=".695"/>
        <stop id="stop2715" stop-color="#B7B9BC" offset=".866"/>
        <stop id="stop2717" stop-color="#BCBEC0" offset="1"/>
      </linearGradient>
      <path id="path2719" stroke="#000" stroke-width="3" fill="url(#SVGID_23_)" d="m393.51 206.72c0-2.65 0.5-5.78 0.5-5.78s1.74-2.4 1.49-1.92-0.25-2.53-0.37-3.37c-0.13-0.85-0.36-1.91 0.37-2.53 2.11-1.8 2.74-2.53 3.98-2.77s3.73-0.72 5.72-4.81 6.34-6.74 7.58-6.74c1.25 0 4.11-0.72 5.85 1.56 0.94 1.24 0.99 0.61 6.09 1.45 5.12 0.84 9.08 2.53 11.07 2.53s7.21 1.2 9.2 1.2 8.21 2.89 9.45 4.81c1.24 1.93 1.49 1.69 6.22 4.09 4.72 2.41 7.98 3.05 8.95 4.1 1.12 1.2 1.99 0.36 3.23 1.44s2.36 3.01 2.36 3.01 1.12 2.4 0.62 3.73c-0.5 1.32-1.24 2.64-5.22 6.02-4.12 3.49-5.97 3.61-7.71 6.01-1.74 2.41-2.23 6.02-3.73 7.95-1.49 1.92-2.48 3.12-3.73 3.12-1.24 0-1.24 0.73-3.23-4.81s-2.74-5.05-2.98-10.83c-0.25-5.78 0.24-13.96 0.24-16.13 0-2.16 0.5-3.61-1.74-5.77-2.23-2.17-4.72-3.37-3.23-0.24 1.49 3.12 3.23 4.81 3.73 6.74 0.5 1.92 2.24 24.79 2.24 24.79s-1 2.16-3.98 5.77-6.46 8.67-10.94 9.15-13.68 0-14.92-0.24-0.5-3.13-2.74-3.37c-2.23-0.24-1.98-1.71-7.28 2.46-2.77 2.17-7.47 6.07-15.76 5.16-7.3-0.8-11.52-6.66-12.77-8.34-1.24-1.69-0.74-2.65-0.74-2.65s0.25 3.13 6.46-2.41c6.22-5.54 6.22-5.29 5.48-6.74-0.75-1.44-2.15-3.88-3.49-4.57-1.86-0.96-5.53-1.81-7.58-1.81-1.37 0-3.86 1.33-3.86 1.33s2.74-2.17 6.22-4.82c3.48-2.64 6.22-3.13 7.96-4.33s0.99-1.44 0.99-1.44z"/>
      <path id="path2721" d="m384.06 213.34s3.24-1.93 7.09-3.97c4.12-2.19 6.83-1.72 11.19-7.1 3.6-4.46 3.36-4.82 4.85-6.5 0.36-0.41 1.49-1.09 1.49-1.09s1.12-0.48 2.36-0.48h2.74s3.89 1.52 3.6 2.89c-0.37 1.81-0.62 2.17-3.73 6.26-4.61 6.07-5.34 6.98-8.95 10.59 0 0-2.6 1.8-5.1 3.61-2.48 1.81-5.47 4.09-6.21 3.61-0.75-0.48-1-2.17-2.12-3.01-1.11-0.84-4.6-2.65-6.84-2.65-2.23 0-3.48 0.24-3.48 0.24l3.11-2.4z" fill="#fff"/>
      <path id="path2723" d="m410.75 213.78c-4.31 1.28-5.55 2.25-5.55 2.25l-0.33 2 0.83 2.73 1.74-3.45 2.24-1.76 1.07-1.77z" fill="#636466"/>
      <g id="g2725">
        <path id="path2727" stroke="#000" stroke-width="3" fill="#f26722" d="m418.16 203.25c2.24-1.61 3.58-1.81 5.05-1.87 1.96-0.09 4.33 0.67 5.75 2.5 2.9 3.75-3.28 8.56-5.99 9.57-2.31 0.86-6.65-0.05-6.9-2.8-0.28-2.97 0.76-5.49 2.09-7.4"/>
        <path id="path2729" stroke="#000" stroke-width="2" fill="#fff" d="m416.99 205.32c-1.16 2.43-2.48 6.16 2.17 7.84 3 1.08 6.68-0.97 7.59-3.18 0.93-2.29-0.55-6.54-4.03-7.15-2.84-0.5-4.39 0.47-5.08 1.39l-0.65 1.1z"/>
        <path id="path2731" stroke="#000" d="m416.93 207.74c-1 1.33-0.92 3.12 0.17 3.99 1.1 0.87 2.8 0.5 3.8-0.83s0.93-3.12-0.17-3.99c-1.09-0.87-2.79-0.5-3.8 0.83z"/>
        <path id="path2733" d="m419.23 212.37c-0.48-0.27-0.85-2.18-0.36-2.68 1.84 1.08 2.04 2.49 0.36 2.68" fill="#fff"/>
      </g>
      <g id="g2735">
        <path id="path2737" stroke="#000" stroke-width="2" fill="#f26722" d="m394.81 198.44c0.59-1.95 1.27-2.66 2.06-3.35 1.07-0.92 2.72-1.52 4.27-1.06 3.18 0.94 1.69 6.54 0.58 8.34-0.94 1.53-3.76 2.91-5.04 1.39-1.38-1.64-1.84-3.6-1.87-5.32"/>
        <path id="path2739" stroke="#000" stroke-width="2" fill="#fff" d="m395 200.19c0.35 1.96 1.15 4.76 4.45 3.69 2.14-0.69 3.36-3.53 2.96-5.25-0.42-1.78-3.01-3.64-5.21-2.46-1.81 0.96-2.28 2.22-2.29 3.08l0.09 0.94z"/>
        <path id="path2741" stroke="#000" d="m395.97 201.65c-0.02 1.24 0.76 2.26 1.74 2.3 0.97 0.03 1.78-0.95 1.79-2.18 0.02-1.24-0.76-2.26-1.74-2.3-0.98-0.03-1.78 0.95-1.79 2.18z"/>
        <path id="path2743" d="m398.82 203.36c-0.31 0.05-1.09-0.75-1.03-1.18 1.18-0.16 1.72 0.46 1.03 1.18" fill="#fff"/>
      </g>
      <path id="path2745" d="m435.16 204.19c-1.36-3.01-2.61-3.97-4.47-5.41-1.87-1.45-5.72-1.45-6.59-1.45s-3.36 1.09-4.1 1.45c-0.75 0.36-0.38-0.12 2.11-0.12s4.85-0.36 6.59 0.6 2.24 1.2 3.48 2.16c1.24 0.97 2.98 2.77 2.98 2.77z" fill="#636466"/>
      <path id="path2747" d="m405.2 194.32c-1.12-1.92-1.74-2.88-2.86-3.25-1.12-0.36-3.23 0-3.23 0s3.73-1.68 4.72-1.2c1 0.48 1.74 2.29 1.74 2.29l-0.37 2.16z" fill="#636466"/>
      <path id="path2749" stroke="#000" stroke-width="2" fill="#333" d="m460.53 222.48c0.13-1.44 0.5-3.85 2.61-5.41 2.11-1.57 4.48-3.01 4.48-3.01l-5.1-7.7-1.37-3.37-0.62-1.45s-1.74 8.19-1.24 11.44c0.49 3.25 1.24 9.5 1.24 9.5z"/>
      <ellipse id="ellipse2751" d="m 402.28801,236.55 c 0,0.46282 -0.34832,0.838 -0.778,0.838 -0.42968,0 -0.778,-0.37518 -0.778,-0.838 0,-0.46281 0.34832,-0.838 0.778,-0.838 0.42968,0 0.778,0.37519 0.778,0.838 z" rx=".778" ry=".838" cy="236.55" cx="401.51" fill="#514e4c"/>
      <ellipse id="ellipse2753" d="m 398.63699,236.81 c 0,0.53406 -0.42846,0.967 -0.957,0.967 -0.52853,0 -0.957,-0.43294 -0.957,-0.967 0,-0.53406 0.42847,-0.967 0.957,-0.967 0.52854,0 0.957,0.43294 0.957,0.967 z" rx=".957" ry=".967" cy="236.81" cx="397.68" fill="#514e4c"/>
      <ellipse id="ellipse2755" d="m 394.44699,236.28999 c 0,0.53406 -0.42846,0.967 -0.957,0.967 -0.52854,0 -0.957,-0.43294 -0.957,-0.967 0,-0.53406 0.42846,-0.967 0.957,-0.967 0.52854,0 0.957,0.43294 0.957,0.967 z" rx=".957" ry=".967" cy="236.29" cx="393.49" fill="#514e4c"/>
      <ellipse id="ellipse2757" d="m 396.11899,239.06 c 0,0.36727 -0.26818,0.665 -0.599,0.665 -0.33082,0 -0.599,-0.29773 -0.599,-0.665 0,-0.36727 0.26818,-0.665 0.599,-0.665 0.33082,0 0.599,0.29773 0.599,0.665 z" rx=".599" ry=".665" cy="239.06" cx="395.52" fill="#514e4c"/>
      <ellipse id="ellipse2759" d="m 400.069,238.74001 c 0,0.36671 -0.26818,0.664 -0.599,0.664 -0.33082,0 -0.599,-0.29729 -0.599,-0.664 0,-0.36672 0.26818,-0.664 0.599,-0.664 0.33082,0 0.599,0.29728 0.599,0.664 z" rx=".599" ry=".664" cy="238.74" cx="399.47" fill="#514e4c"/>
      <ellipse id="ellipse2761" d="m 394.44801,236.87 c 0,0.36726 -0.26774,0.665 -0.598,0.665 -0.33027,0 -0.598,-0.29774 -0.598,-0.665 0,-0.36727 0.26773,-0.665 0.598,-0.665 0.33026,0 0.598,0.29773 0.598,0.665 z" rx=".598" ry=".665" cy="236.87" cx="393.85" fill="#ecb656"/>
      <ellipse id="ellipse2763" d="m 398.69801,237.39 c 0,0.36727 -0.26774,0.665 -0.598,0.665 -0.33027,0 -0.598,-0.29773 -0.598,-0.665 0,-0.36727 0.26773,-0.665 0.598,-0.665 0.33026,0 0.598,0.29773 0.598,0.665 z" rx=".598" ry=".665" cy="237.39" cx="398.1" fill="#ecb656"/>
      <ellipse id="ellipse2765" d="m 402.468,236.94 c 0,0.36727 -0.26774,0.665 -0.598,0.665 -0.33027,0 -0.598,-0.29773 -0.598,-0.665 0,-0.36727 0.26773,-0.665 0.598,-0.665 0.33026,0 0.598,0.29773 0.598,0.665 z" rx=".598" ry=".665" cy="236.94" cx="401.87" fill="#ecb656"/>
      <ellipse id="ellipse2767" d="m 396.14901,239.38 c 0,0.22478 -0.1473,0.407 -0.329,0.407 -0.1817,0 -0.329,-0.18222 -0.329,-0.407 0,-0.22478 0.1473,-0.407 0.329,-0.407 0.1817,0 0.329,0.18222 0.329,0.407 z" rx=".329" ry=".407" cy="239.38" cx="395.82" fill="#ecb656"/>
      <ellipse id="ellipse2769" d="m 399.97899,239 c 0,0.22478 -0.14729,0.407 -0.329,0.407 -0.1817,0 -0.329,-0.18222 -0.329,-0.407 0,-0.22478 0.1473,-0.407 0.329,-0.407 0.18171,0 0.329,0.18222 0.329,0.407 z" rx=".329" ry=".407" cy="239" cx="399.65" fill="#ecb656"/>
      <path id="path2771" stroke="#000" stroke-width="2" fill="#333" d="m389.16 228.14c1-0.84 1.62-1.56 3.48-3.61 0.66-0.73 1.04-0.8 0.62-2.17-0.52-1.73-1.74-3.97-2.98-4.57s-3.86-1.68-5.6-1.68-1.74-0.48-3.85 0c-2.12 0.48-2.12 0.96-2.86 1.68-1.23 1.19-1 2.41-0.75 3.61 0.25 1.21 1.25 1.69 1.25 2.53s-0.5 2.17-0.5 2.89 1.62 2.28 2.48 3.49c0.87 1.2 0.87 1.32 1.99 1.32s1.9 0.25 3.24-0.72c2.48-1.81 3.48-2.77 3.48-2.77"/>
      <path id="path2773" d="m384.93 220.32c-1.99 0.36-2.48 0.6-3.85-0.72-1.37-1.33-1.37-2.77 0.12-2.89s4.85 0 5.85 0.84c0.99 0.84 0.85 1.28 0.12 1.81-0.99 0.72-2.24 0.96-2.24 0.96z" fill="#989898"/>
      <path id="path2775" d="m387.86 226.17c-2.03 0.26-2.99 0.39-3.94 0-0.96-0.39-1.8-1.03-1.92-0.65-0.12 0.39-0.48 0.78 0 1.55s1.68 1.03 2.52 1.03c0.83 0 2.39-0.26 2.39-0.26l1.79-1.67h-0.84z" fill="#847a6a"/>
      <path id="path2777" d="m389.54 225.61c-1.04 1.12 0.96-0.61-1.36-0.43-2.15 0.17-2.87-0.52-3.58-1.98-0.72-1.46 0-1.72-1.36-2.06-0.52-0.13-1.05 0-1.28 1.46-0.24 1.55-0.52 2.49 0.04 2.92s2.2 0.78 2.84 0.78c0.63 0 2.55-0.13 3.03-0.13 0.47 0 1.67-0.56 1.67-0.56z"/>
      <ellipse id="ellipse2779" d="m 384.73001,218.19 c 0,0.44349 -0.63128,0.803 -1.41,0.803 -0.77872,0 -1.41,-0.35951 -1.41,-0.803 0,-0.44348 0.63128,-0.803 1.41,-0.803 0.77872,0 1.41,0.35952 1.41,0.803 z" rx="1.41" ry=".803" cy="218.19" cx="383.32" fill="#fff"/>
    </g>
    <path id="path2781" opacity=".39" d="m545.88 658.89c-21.33 1.13-22.67 1.7-22.67 1.7s-8.66-4-30-9.64c-22.34-5.92-58.66-15.36-75.66-16.36-11.58-0.68-9.64-0.85-44.67-3.67l31.33-39s-1.66-1.69 3-1.69c4.67 0 84 3.97 98 6.24s36 8.51 36 8.51 3.34-0.56 4 3.98c0.67 4.53 0.67 49.93 0.67 49.93z" stroke="#000" stroke-width="4" fill="#fff"/>
    <path id="path3861" stroke="#000" stroke-width="4" fill="url(#linearGradient3869)" d="m391.48 820.31c7-28.5 35.49-63.5 62-63.5s33.41 23.65 29 57.75c-4.5 34.75-34.99 75.25-61.5 75.25s-37.7-36.12-29.5-69.5z"/>
    <path id="path2430" stroke="#000" stroke-width="4" fill="url(#linearGradient3883)" d="m460.88 831.93c-3.33 21.66-26.3 42.33-46 42.33s-27.62-15.73-23.83-40.67c4-26.33 27.46-50.66 47.16-50.66s26.51 24.07 22.67 49z"/>
    <path id="path3885" stroke="#fff" stroke-width="3" fill="url(#linearGradient3893)" d="m491.86 729.11c3.23-1.8 3.64-2.32 7.79-2.43 0 0 4.06 0.13 3.55 0.2-0.5 0.07 3.83 0.25 6.32-2.61 2.9-3.32 6.57-4.63 10.78-3.29-4.87 0.62-5.3 2.93-7.14 7.15-0.85 1.95-2.93 3-0.82 4.53 3.77 2.74 5.44-2.55 7.24-4.83 3.23-4.08 6.11-5.88 11.17-5.25 5.46 0.67 8.07-2.08 11.56-6.09-2.33 5.58-5.67 7.17-10.03 10.44-5 3.73-2.41 8.2 3.41 7.52 5.98-0.69 9.04-6.69 13.76-9.83 5.78-3.86 12.27-4.7 19.12-3.46 7.41 1.35 13.34 1.88 18.11-4.86-5.65 13.96-21.45 6.79-29.42 16.47-2.11 2.57-3.5 4.65-6.37 6.4 2.44 1.09 6.15 0.1 8.61-0.14 2.9-0.27 5.46-1.86 7.69-3.53-3.59 3.25-6.19 6.09-10.83 7.78-4.65 1.7-8.07 2.14-10.52 7.11 1.95-0.96 6.31 0.92 10.15 1.79 2.4 0.55 4.61 0.21 5.89 0.19 3.5-0.06 17.5-8.16 19.91-10.22-3.86 2.06-15.07 13.78-19.54 15.15-1.28 0.4-3.6 1.68-6.65 1.58-4.81-0.15-10.75-1.67-12.05 0.23-1.49 2.2-1.61 3.04-3.96 4.65 3.14 1.25 4.22 3.52 8.04 3.03 3.1-0.4 6.65-2.31 9.07-4.24-2.57 4.25-8.97 7.18-13.33 8.45-4.95 1.45-11.75-1.9-16.13 1.47-2 1.54-4.93 1.64-5.98 5.08 2.63-2.63 7.9 0.16 11.1 0.82 2.98 0.62 5.83-0.56 9.41-0.44-2.18 2.29-12.51 8.62-12.51 8.62l-12 7-24.34 13.67c-0.33-20.33-6.64-42.51-9.33-46.67-3.67-5.66-5.17-11.67-32-11.5 0 0 23.18-14.83 35.58-14.81 4.44 0.01 4.69-5.13 4.69-5.13z"/>
    <path id="path3895" stroke="#fff" stroke-width="3" fill="url(#linearGradient3903)" d="m331.58 853.69c-6.43 3.87-19.3-12.03-33.47-16.94-33.68-11.66-83.52-31.39-89.52-36.89s-38.65-30.07-38.65-30.07l-7.96-2.95s-13.24-21.09-7.59-27.53c11.99-13.66 12.14-38.5-1.98-46.04-3.56-1.9 11.76-6.17 23.98-10.96 11.49-4.5 27.4-9.7 39.5-13 11-3 32.5-2 32.5-2s-17.94 11.36-25.5 11c-10.5-0.5-16.5 6.5-19.5 9.5s5-1.5 12.5-2.5 10-3.5 10-3.5-11 13-17 14.5-8 11-8 13 10.5 3 12 0.5 23-5 23-5-6 10-9 14-17 7.5-17 7.5l-4.5 4.5s0.5 4 17.5-2.5 11-11 22.25-14.75c14.1-4.7 35.75-6.5 35.75-6.5s-10.96 13.35-20.5 13.75c-6 0.25-12.5 5-14 9.5s-6.5 10-3 10.5 9.5-2 21.5-7.5 33.5-6.5 35.5-6.5 25-3 25-3-27 10-33.5 11-23 9-24 12.5 2.5 8 6 8.5 12.91-1.26 16-4.5c5.25-5.5 21-12.5 21-12.5l15.5-4.5s16.5-3 18.5-4 14-3 14-3-9 8-17 10.5-19 7.5-21 10.5 6.57 4.28 11.75 0.75c11.75-8 26-9.75 26-9.75s-10.75 14.5-22.75 19.25c-5.83 2.31 12.25 15.75 15.5 3.75 7.19-26.56 43.5-44 45-44.5s-18.5 27-7.5 27 21.5-9.5 30.5-14.5 25-11 25-11-16.67 24.67-40.5 34.5c-9.71 4.01-17.17 21.34-17.17 21.34s13.4-10.83 24.67-13.84c7.5-2 23.17-4.67 23.17-4.67s-26.67 16.17-35.67 30.67c-5.34 8.6-10.5 22.61-13.33 33-2 7.34-2.67 7-6.17 18.5-2.03 6.66-3.5 6.47-11.53 19.51-3.31 5.37-30.34-8.2-36.28-4.63z"/>
    <path id="path2610" stroke="#000" stroke-width="4" fill="#ccc" d="m264.21 782.26c-6-6.67-36-28.67-46-32.67s-40-16.67-40-16.67-13.33-4.66-13.33-0.66 8 21.33 8 26c0 4.66 3.33 8 10.67 15.33 7.33 7.33 16 18 26.67 22 10.66 4 31.33 14 40.66 16.67 9.34 2.66 14.67 4 16.67-2s-0.67-18-0.67-20.67-2.67-7.33-2.67-7.33z"/>
    <ellipse id="ellipse2624" d="m 205.67,432.67001 c 0,15.27951 -8.50659,27.666 -19,27.666 -10.49341,0 -19,-12.38649 -19,-27.666 0,-15.27951 8.50659,-27.666 19,-27.666 10.49341,0 19,12.38649 19,27.666 z" cy="432.67" rx="19" ry="27.666" transform="translate(120.55,350.59)" stroke="#000" cx="186.67" stroke-width="4" fill="#fff"/>
    <path id="path2628" d="m295.05 866.09c-24.5-7-70.5-29-84.5-37.5s-57-47-57-47 48 33 60 39 40.5 19 50 23 69.8 21.6 65 28c-1.5 2-33.5-5.5-33.5-5.5z" fill="#f0efef"/>
    <ellipse id="ellipse2620" d="m 41,404.32999 c 0,6.25904 -2.238576,11.333 -5,11.333 -2.761424,0 -5,-5.07396 -5,-11.333 0,-6.25905 2.238576,-11.333 5,-11.333 2.761424,0 5,5.07395 5,11.333 z" cy="404.33" rx="5" ry="11.333" transform="translate(120.55,350.59)" stroke="#000" cx="36" stroke-width="4" fill="#fff"/>
    <ellipse id="ellipse2622" d="m 202.997,485.32999 c 0,8.65209 -4.77578,15.666 -10.667,15.666 -5.89122,0 -10.667,-7.01391 -10.667,-15.666 0,-8.6521 4.77578,-15.666 10.667,-15.666 5.89122,0 10.667,7.0139 10.667,15.666 z" cy="485.33" rx="10.667" ry="15.666" transform="translate(120.55,350.59)" stroke="#000" cx="192.33" stroke-width="4" fill="#fff"/>
    <path id="path3905" stroke="#000" stroke-width="4" fill="url(#linearGradient3913)" d="m264.21 782.26c-6-6.67-36-28.67-46-32.67s-40-16.67-40-16.67-13.33-4.66-13.33-0.66 8 21.33 8 26c0 4.66 3.33 8 10.67 15.33 7.33 7.33 16 18 26.67 22 10.66 4 31.33 14 40.66 16.67 9.34 2.66 14.67 4 16.67-2s-0.67-18-0.67-20.67-2.67-7.33-2.67-7.33z"/>
    <path id="path3915" stroke="#000" stroke-width="4" fill="url(#linearGradient3923)" d="m501.55 668.92c-5.34 4-44.67 14.67-60.67 18.67s-134.67 37.33-134.67 37.33-7.33 2-13.33 2-2.67 1.34-15.33-1.33c-12.67-2.67-47.34-16-51.34-16.67-4-0.66-12.66-6.66-12.66-6.66l1.33-4 29.33-12.67-1-5.67 49.67-17s38.67-14.66 48.67-18.66 22.67-7.34 22.67-7.34 9.33-0.66 28.66 0.67 37.64 3.93 52 7.33c19.67 4.67 28 6 37.33 10.67 9.34 4.67 19.34 13.33 19.34 13.33z"/>
    <path id="path2513" opacity=".59" d="m315.9 696.6c26.34-9.33 151.67-25 151.67-25l-148.34 41.67-3.33-16.67z" fill="#cfdde2"/>
    <polygon id="polygon2515" points="122.5 339 194.5 360.5 192 347.5 122.67 330.33" transform="translate(123.58,350.59)" fill="#1f295b"/>
    <path id="path2541" stroke="#000" stroke-width="4" fill="#0054a6" d="m541.66 700.98c1.26 3.46-0.53 7.29-3.99 8.54l-25.69 9.34c-3.46 1.26-7.28-0.53-8.54-3.99s0.53-7.29 3.99-8.54l25.69-9.34c3.46-1.26 7.28 0.53 8.54 3.99z"/>
  </g>
  <metadata>
    <rdf:RDF>
      <cc:Work>
        <dc:format>image/svg+xml</dc:format>
        <dc:type rdf:resource="http://purl.org/dc/dcmitype/StillImage"/>
        <cc:license rdf:resource="http://creativecommons.org/licenses/publicdomain/"/>
        <dc:publisher>
          <cc:Agent rdf:about="http://openclipart.org/">
            <dc:title>Openclipart</dc:title>
          </cc:Agent>
        </dc:publisher>
        <dc:title>Dog in Sports Car</dc:title>
        <dc:date>2010-07-25T19:31:53</dc:date>
        <dc:description>A cartoon of a dog driving in a  sports / performance car</dc:description>
        <dc:source>http://openclipart.org/detail/74635/dog-in-sports-car-by-wildchief</dc:source>
        <dc:creator>
          <cc:Agent>
            <dc:title>wildchief</dc:title>
          </cc:Agent>
        </dc:creator>
        <dc:subject>
          <rdf:Bag>
            <rdf:li>car</rdf:li>
            <rdf:li>clip art</rdf:li>
            <rdf:li>clipart</rdf:li>
            <rdf:li>dog</rdf:li>
            <rdf:li>hound</rdf:li>
            <rdf:li>mutt</rdf:li>
            <rdf:li>performance</rdf:li>
            <rdf:li>sportcar</rdf:li>
            <rdf:li>sports</rdf:li>
            <rdf:li>sports2010</rdf:li>
            <rdf:li>vehicle</rdf:li>
          </rdf:Bag>
        </dc:subject>
      </cc:Work>
      <cc:License rdf:about="http://creativecommons.org/licenses/publicdomain/">
        <cc:permits rdf:resource="http://creativecommons.org/ns#Reproduction"/>
        <cc:permits rdf:resource="http://creativecommons.org/ns#Distribution"/>
        <cc:permits rdf:resource="http://creativecommons.org/ns#DerivativeWorks"/>
      </cc:License>
    </rdf:RDF>
  </metadata>
</svg>
