<?xml version="1.0"?>
<svg xmlns:rdf="http://www.w3.org/1999/02/22-rdf-syntax-ns#" xmlns="http://www.w3.org/2000/svg" xmlns:cc="http://creativecommons.org/ns#" xmlns:xlink="http://www.w3.org/1999/xlink" xmlns:dc="http://purl.org/dc/elements/1.1/" xmlns:svg="http://www.w3.org/2000/svg" id="svg2" viewBox="0 0 612 325" version="1.1">
  <title id="title5770">Yellow convertible sports car</title>
  <defs id="defs4">
    <linearGradient id="linearGradient4825">
      <stop id="stop4827" stop-color="#2d2d2d" offset="0"/>
      <stop id="stop4829" stop-color="#ccc" offset="1"/>
    </linearGradient>
    <filter id="filter4078" color-interpolation-filters="sRGB">
      <feGaussianBlur id="feGaussianBlur4080" stdDeviation="1.1709831"/>
    </filter>
    <filter id="filter4304" width="1.0328" y="-.11467" x="-.016408" height="1.2293" color-interpolation-filters="sRGB">
      <feGaussianBlur id="feGaussianBlur4306" stdDeviation="1.9857072"/>
    </filter>
    <filter id="filter4405" width="1.0622" y="-.37307" x="-.031101" height="1.7461" color-interpolation-filters="sRGB">
      <feGaussianBlur id="feGaussianBlur4407" stdDeviation="3.7426897"/>
    </filter>
    <filter id="filter4427" width="1.5431" y="-.88643" x="-.27154" height="2.7729" color-interpolation-filters="sRGB">
      <feGaussianBlur id="feGaussianBlur4429" stdDeviation="10.562057"/>
    </filter>
    <filter id="filter4431" width="1.1394" y="-.24751" x="-.069721" height="1.495" color-interpolation-filters="sRGB">
      <feGaussianBlur id="feGaussianBlur4433" stdDeviation="2.6467501"/>
    </filter>
    <filter id="filter4859" width="1.4254" y="-.18718" x="-.2127" height="1.3744" color-interpolation-filters="sRGB">
      <feGaussianBlur id="feGaussianBlur4861" stdDeviation="2.8730302"/>
    </filter>
    <filter id="filter4863" width="1.2925" y="-.08508" x="-.14623" height="1.1702" color-interpolation-filters="sRGB">
      <feGaussianBlur id="feGaussianBlur4865" stdDeviation="2.8730302"/>
    </filter>
    <filter id="filter4867" width="1.312" y="-.082095" x="-.15598" height="1.1642" color-interpolation-filters="sRGB">
      <feGaussianBlur id="feGaussianBlur4869" stdDeviation="2.8730302"/>
    </filter>
    <filter id="filter4871" width="1.39" y="-.095498" x="-.19498" height="1.191" color-interpolation-filters="sRGB">
      <feGaussianBlur id="feGaussianBlur4873" stdDeviation="2.8730302"/>
    </filter>
    <filter id="filter4875" width="1.4254" y="-.093589" x="-.2127" height="1.1872" color-interpolation-filters="sRGB">
      <feGaussianBlur id="feGaussianBlur4877" stdDeviation="2.8730302"/>
    </filter>
    <filter id="filter4879" width="1.4926" y="-.095498" x="-.24629" height="1.191" color-interpolation-filters="sRGB">
      <feGaussianBlur id="feGaussianBlur4881" stdDeviation="2.8730302"/>
    </filter>
    <filter id="filter4883" width="1.5849" y="-.099562" x="-.29246" height="1.1991" color-interpolation-filters="sRGB">
      <feGaussianBlur id="feGaussianBlur4885" stdDeviation="2.8730302"/>
    </filter>
    <filter id="filter4887" width="1.5505" y="-.10635" x="-.27526" height="1.2127" color-interpolation-filters="sRGB">
      <feGaussianBlur id="feGaussianBlur4889" stdDeviation="2.8730302"/>
    </filter>
    <filter id="filter4891" width="1.4926" y="-.12998" x="-.24629" height="1.26" color-interpolation-filters="sRGB">
      <feGaussianBlur id="feGaussianBlur4893" stdDeviation="2.8730302"/>
    </filter>
    <filter id="filter4895" width="1.7799" y="-.15598" x="-.38995" height="1.312" color-interpolation-filters="sRGB">
      <feGaussianBlur id="feGaussianBlur4897" stdDeviation="2.8730302"/>
    </filter>
    <filter id="filter4899" width="1.8508" y="-.2127" x="-.4254" height="1.4254" color-interpolation-filters="sRGB">
      <feGaussianBlur id="feGaussianBlur4901" stdDeviation="2.8730302"/>
    </filter>
    <filter id="filter4903" width="1.8508" y="-.24629" x="-.4254" height="1.4926" color-interpolation-filters="sRGB">
      <feGaussianBlur id="feGaussianBlur4905" stdDeviation="2.8730302"/>
    </filter>
    <filter id="filter4907" width="2.1699" y="-.33424" x="-.58493" height="1.6685" color-interpolation-filters="sRGB">
      <feGaussianBlur id="feGaussianBlur4909" stdDeviation="2.8730302"/>
    </filter>
    <filter id="filter4997" width="1.1045" y="-.10111" x="-.052253" height="1.2022" color-interpolation-filters="sRGB">
      <feGaussianBlur id="feGaussianBlur4999" stdDeviation="0.94600547"/>
    </filter>
    <filter id="filter5097" width="1.1099" y="-.27988" x="-.054952" height="1.5598" color-interpolation-filters="sRGB">
      <feGaussianBlur id="feGaussianBlur5099" stdDeviation="12.604553"/>
    </filter>
    <filter id="filter5101" width="1.1106" y="-.19638" x="-.055317" height="1.3928" color-interpolation-filters="sRGB">
      <feGaussianBlur id="feGaussianBlur5103" stdDeviation="2.0999405"/>
    </filter>
    <filter id="filter5105" color-interpolation-filters="sRGB">
      <feGaussianBlur id="feGaussianBlur5107" stdDeviation="1.9357851"/>
    </filter>
    <filter id="filter5109" color-interpolation-filters="sRGB">
      <feGaussianBlur id="feGaussianBlur5111" stdDeviation="1.6905103"/>
    </filter>
    <filter id="filter5123" color-interpolation-filters="sRGB">
      <feGaussianBlur id="feGaussianBlur5125" stdDeviation="0.66758293"/>
    </filter>
    <filter id="filter5619" width="1.138" y="-.13732" x="-.069021" height="1.2746" color-interpolation-filters="sRGB">
      <feGaussianBlur id="feGaussianBlur5621" stdDeviation="0.42236402"/>
    </filter>
    <filter id="filter5641" color-interpolation-filters="sRGB">
      <feGaussianBlur id="feGaussianBlur5643" stdDeviation="0.33763847"/>
    </filter>
    <linearGradient id="linearGradient5772" x1="440" gradientUnits="userSpaceOnUse" y1="604.36" gradientTransform="matrix(-1.2854 0 0 -.86761 -391.45 764.55)" x2="467" y2="527.36">
      <stop id="stop3819" offset="0"/>
      <stop id="stop3821" stop-color="#2d2d2d" offset="1"/>
    </linearGradient>
    <linearGradient id="linearGradient5774" x1="384.59" gradientUnits="userSpaceOnUse" y1="453.37" gradientTransform="translate(-1112.8 -137.54)" x2="391.22" y2="502">
      <stop id="stop5194" stop-color="#2d2d2d" offset="0"/>
      <stop id="stop5196" stop-color="#0d0a0a" offset="1"/>
    </linearGradient>
    <linearGradient id="linearGradient5792" x1="-477.71" gradientUnits="userSpaceOnUse" x2="-462.24" y1="253.13" y2="256.43">
      <stop id="stop4009" stop-color="#666" offset="0"/>
      <stop id="stop4011" stop-color="#ccc" offset="1"/>
    </linearGradient>
    <linearGradient id="linearGradient5794" x1="-476.47" gradientUnits="userSpaceOnUse" x2="-501.84" y1="257.66" y2="257.66">
      <stop id="stop4023" stop-color="#ccc" offset="0"/>
      <stop id="stop4025" stop-color="#999" offset="1"/>
    </linearGradient>
    <linearGradient id="linearGradient5796" y2="423.58" gradientUnits="userSpaceOnUse" y1="469.82" x2="414.55" x1="413.62">
      <stop id="stop4031" stop-color="#666" offset="0"/>
      <stop id="stop4033" stop-color="#999" offset="1"/>
    </linearGradient>
    <linearGradient id="linearGradient5808" x1="491.28" gradientUnits="userSpaceOnUse" y1="249.55" gradientTransform="translate(-1112.8 -137.54)" x2="493.88" y2="272.47">
      <stop id="stop5170" stop-color="#2d2d2d" offset="0"/>
      <stop id="stop5172" stop-color="#666" offset="1"/>
    </linearGradient>
    <linearGradient id="linearGradient5812" x1="449.43" gradientUnits="userSpaceOnUse" y1="284.65" gradientTransform="matrix(.95967 0 0 .78422 -1108.8 -75.279)" x2="475.95" y2="286.13">
      <stop id="stop4389" stop-color="#fff" offset="0"/>
      <stop id="stop4391" stop-color="#ccc" offset="1"/>
    </linearGradient>
    <linearGradient id="linearGradient5814" x1="125.25" gradientUnits="userSpaceOnUse" y1="424.64" gradientTransform="translate(-1112.8 -137.54)" x2="206.29" y2="398.12">
      <stop id="stop4776" stop-color="#666" offset="0"/>
      <stop id="stop4778" stop-color="#2d2d2d" offset="1"/>
    </linearGradient>
    <linearGradient id="linearGradient5818" y2="380.6" gradientUnits="userSpaceOnUse" y1="392.51" x2="75.826" x1="72.412">
      <stop id="stop4804" stop-color="#ccc" offset="0"/>
      <stop id="stop4806" stop-color="#fff" offset="1"/>
    </linearGradient>
    <linearGradient id="linearGradient5820" x1="-242.48" xlink:href="#linearGradient4825" gradientUnits="userSpaceOnUse" y1="426.72" gradientTransform="matrix(.94538 -.23229 .19175 .65624 240.82 9.8956)" x2="-245.07" y2="431.56"/>
    <linearGradient id="linearGradient5822" x1="307.75" gradientUnits="userSpaceOnUse" x2="311.09" y1="410.45" y2="405.96">
      <stop id="stop5019" stop-color="#364e59" offset="0"/>
      <stop id="stop5021" stop-color="#364e59" stop-opacity="0" offset="1"/>
    </linearGradient>
    <linearGradient id="linearGradient5826" y2="392.49" gradientUnits="userSpaceOnUse" y1="360.22" x2="62.715" x1="84.016">
      <stop id="stop4812" stop-color="#fff" offset="0"/>
      <stop id="stop4814" stop-color="#ccc" offset="1"/>
    </linearGradient>
    <linearGradient id="linearGradient5828" x1="-242.48" xlink:href="#linearGradient4825" gradientUnits="userSpaceOnUse" y1="426.72" gradientTransform="matrix(1.5741 -.40916 .31928 1.1559 -539.37 -373.82)" x2="-245.07" y2="431.56"/>
    <linearGradient id="linearGradient5830" x1="306.85" gradientUnits="userSpaceOnUse" y1="396.98" gradientTransform="translate(-1112.8 -137.54)" x2="286.01" y2="423.03">
      <stop id="stop5009" stop-color="#364e59" offset="0"/>
      <stop id="stop5011" stop-color="#364e59" stop-opacity="0" offset="1"/>
    </linearGradient>
    <linearGradient id="linearGradient5836" y2="408.96" gradientUnits="userSpaceOnUse" y1="418.86" x2="294.35" x1="275.07">
      <stop id="stop5047" stop-color="#666" offset="0"/>
      <stop id="stop5049" stop-color="#666" stop-opacity="0" offset="1"/>
    </linearGradient>
    <linearGradient id="linearGradient5842" x1="498.79" gradientUnits="userSpaceOnUse" y1="413.59" gradientTransform="translate(-1112.8 -137.54)" x2="502.47" y2="341.38">
      <stop id="stop5208" stop-color="#666" offset="0"/>
      <stop id="stop5210" stop-color="#ffc022" offset="1"/>
    </linearGradient>
    <linearGradient id="linearGradient5844" x1="130.41" gradientUnits="userSpaceOnUse" y1="367.17" gradientTransform="translate(-1112.8 -137.54)" x2="144.41" y2="304.55">
      <stop id="stop5228" stop-color="#f90" offset="0"/>
      <stop id="stop5230" stop-color="#f90" stop-opacity=".073171" offset="1"/>
    </linearGradient>
    <linearGradient id="linearGradient5846" y2="197.19" gradientUnits="userSpaceOnUse" y1="184.16" x2="-569.42" x1="-574.63">
      <stop id="stop5625" stop-color="#fffc3d" offset="0"/>
      <stop id="stop5627" stop-color="#ffc022" offset="1"/>
    </linearGradient>
  </defs>
  <g id="layer1" transform="translate(0 -727.36)">
    <g id="g5645" transform="matrix(1.0049 0 0 1 1110.4 659.73)">
      <path id="path3961" stroke-width="0pt" fill="#2d2d2d" d="m-792.69 164.69c2.296-6.592 31.373-15.242 44.561-21.834 51.47-6.3809 89.729 0.38332 143.83 2.9471 25.206 12.636 30.867 8.0395 43.348 17.604-30.247 6.592-51.065 12.447-70.39 19.039z"/>
      <g id="g5136" stroke-width="0pt" transform="matrix(.98590 .10044 0 1.0806 -1022.9 -197.4)">
        <path id="path5138" fill="#2d2d2d" d="m352.29 254.45c-1.6693 0.8396-3.0678 2.4126-3.7786 4.1406-2.3497 5.7122 1.0228 12.599-0.7557 18.514-2.5253 8.3987-13.603 22.521-13.603 22.521l55.924 2.4635s4.8389-14.191 3.7787-21.336c-0.57163-3.8518-4.5757-6.5877-5.2901-10.416-0.9171-4.9142 3.6057-10.382 1.5114-14.921-1.0267-2.2252-3.6726-3.5719-6.0458-4.1833-10.298-2.6532-22.24-1.5626-31.74 3.2158zm2.7159 5.7366c7.2911-3.6775 16.467-4.527 24.372-2.4803 1.8199 0.47118 3.8435 1.514 4.6288 3.222 1.6016 3.4832-1.8614 7.6744-1.1572 11.443 0.54889 2.9376 3.6233 5.0362 4.062 7.9922 0.81376 5.4834-2.9048 16.375-2.9048 16.375l-42.911-1.8843s8.4983-10.839 10.438-17.284c1.367-4.5411-1.2113-9.8281 0.5904-14.215 0.54238-1.3206 1.6066-2.5258 2.8812-3.1687z"/>
        <path id="path5140" filter="url(#filter4078)" transform="matrix(.68767 -.087659 0 .59033 119.82 154.41)" fill="#2d2d2d" d="m320.36 284.98 17.691-24.653s-1.4369-14.657 0.62569-20.943c0.5792-1.7651 1.6487-3.4547 3.1286-4.1887 7.7071-3.8226 17.851-3.53 26.28 0.69815 2.0755 1.0411 4.1692 3.1298 5.0058 5.5848 1.8768 5.5077 4.1056 11.934 4.1056 11.934l2.773 17.944c-2.2928 7.7263 10.121-9.6617 0.0856 21.717z"/>
        <path id="path5142" fill="#666" d="m351.87 258.44-3.1184 3.61s0.85923 10.965-0.62371 16.142c-2.0764 7.2478-11.227 19.635-11.227 19.635l46.154 2.1478s4.0022-12.377 3.1185-18.602c-0.47209-3.3253-4.1566-5.0406-2.524-7.9757 1.9536-3.5122 3.504-12.943-0.59451-14.114l-4.9896-3.6473zm2.2414 5.0015 20.114-2.1625 3.8202 2.8092s-1.5416 6.6878-0.95503 9.9767c0.45254 2.5375 2.99 4.4161 3.3523 6.9681 0.67825 4.7776-2.3973 14.277-2.3973 14.277l-35.414-1.6429s7.0196-9.5074 8.6148-15.069c1.1398-3.974 0.48725-12.393 0.48725-12.393z"/>
      </g>
      <path id="path4409" filter="url(#filter5097)" stroke-width="0pt" fill="#999" d="m-1058.8 353.13c-3.4414 34.327 294.48 54.899 351.51 30.758l198.96-84.222-201.32-4.4725s-339.09-42.417-349.16 57.936z"/>
      <path id="path4435" opacity=".66829" d="m443.74 506.14c-2.2401 7.1489-13.709 13.265-46.744 14.024-31.057 0.71329-48.744-3.7227-42.744-10.032 6.7206-7.0674 22.368-15.752 49.744-15.553 20.92 0.15156 43.744-1.2041 39.744 11.561z" transform="matrix(1.6453 0 0 1.2645 -1627.8 -297.4)" filter="url(#filter4431)" stroke-width="0pt" fill="#2d2d2d"/>
      <path id="path4421" opacity=".95122" d="m443.74 506.14c-2.2401 7.1489-13.709 13.265-46.744 14.024-31.057 0.71329-48.744-3.7227-42.744-10.032 6.7206-7.0674 22.368-15.752 49.744-15.553 20.92 0.15156 43.744-1.2041 39.744 11.561z" transform="matrix(2.4997 .15284 -.20552 .80951 -1784.5 -115.37)" filter="url(#filter4427)" stroke-width="0pt" fill="#2d2d2d"/>
      <path id="path4419" opacity=".86829" d="m614.62 441.54c-2.2401 7.1489-13.709 13.265-46.744 14.024-31.057 0.71329-48.744-3.7227-42.744-10.032 6.7206-7.0674 22.368-15.752 49.744-15.553 20.92 0.15156 43.744-1.2041 39.744 11.561z" transform="matrix(1.0079 0 0 1.1332 -1139.7 -203.92)" filter="url(#filter5101)" stroke-width="0pt" fill="#666"/>
      <path id="path4411" opacity=".4" d="m443.74 506.14c-2.2401 7.1489-13.709 13.265-46.744 14.024-31.057 0.71329-48.744-3.7227-42.744-10.032 6.7206-7.0674 22.368-15.752 49.744-15.553 20.92 0.15156 43.744-1.2041 39.744 11.561z" transform="matrix(1.7779 0 0 2.9313 -1415.9 -1132.3)" filter="url(#filter4431)" stroke-width="0pt" fill="#2d2d2d"/>
      <path id="path4312" stroke-width="0pt" transform="translate(-1116.8 -137.54)" fill="#0e232e" d="m606.41 368.85c0 19.565-9.3299 35.426-20.839 35.426s-20.839-15.861-20.839-35.426 9.3299-35.426 20.839-35.426 20.839 15.861 20.839 35.426z"/>
      <path id="path4184" stroke-width="0pt" transform="translate(-1168.8 -294.54)" fill="#0e232e" d="m518 545.36c0 22.644-16.789 41-37.5 41s-37.5-18.356-37.5-41 16.789-41 37.5-41 37.5 18.356 37.5 41z"/>
      <path id="path4057" stroke-width="0pt" fill="url(#linearGradient5772)" d="m-1054.4 298.11c-4.5118-36.344 17.622-67.746 60.083-71.621 39.92-3.6427 62.654 19.011 54.942 51.234-8.6385 36.093-28.751 80.442-63.939 79.429-26.89-0.77401-45.227-11.851-51.086-59.043z"/>
      <path id="path3814" stroke-width="0pt" fill="url(#linearGradient5774)" d="m-669.05 300.08c-2.2401 42.08-9.2888 77.347-42.323 81.813-10.352 1.3995-23.639 0.16818-30.638-4.4534-13.999-9.2436-20.526-29.102-16.526-53.862 6.7206-41.601 22.368-92.717 49.744-91.55 20.92 0.89212 43.744-7.0874 39.744 68.053z"/>
      <path id="path4372" stroke-width="0pt" fill="#f00" d="m-870.92 164.85s-4.196-3.8652-4.038-6.8133c14.323-25.293-27.753-32.424-30.42-7.9486 0.40279 12.169 14.765 6.9725 20.459 8.7057 2.1486 0.63 3.7688 13.248 3.7688 13.248s4.3403 0.91052 6.1917-0.37839c1.8842-1.3119 4.038-6.8133 4.038-6.8133z"/>
      <path id="path4287" stroke-width="0pt" fill="#0e232e" d="m-534.22 206.55c-0.36971-0.0304-0.74546-0.0247-1.1194-0.0237-1.236 0.004-2.4731 0.16922-3.744 0.50812-14.847 3.9594-23.052 39.104-23.052 66.841 5.5931 10.383 3.2547 22.375 13.425 27.08 6.5546 3.0323 15.459 1.7382 21.518-1.0505 12.394-5.7042 26.521-74.52 0.3826-90.574-0.009-0.007-0.0281 0.004-0.0384-0.002-2.3069-1.5937-4.7842-2.5704-7.3721-2.779z"/>
      <path id="path3957" stroke-width="0pt" fill="#0e232e" d="m-623.92 138.33c-1.1113 1.5258-8.8902 22.506-8.1494 24.032 0.74088 1.5258 32.227 2.2887 32.227 2.2887l-5.5523-22.334z"/>
      <path id="path3959" stroke-width="0pt" fill="#364e59" d="m-630.22 164.65c-1.4817 1.1443-10.372 11.444-10.372 11.444l47.785 3.4331-7.0381-13.351z"/>
      <path id="path3909" stroke-width="0pt" fill="#f00" d="m-1017.8 224.18c-26.561-10.123-26.672 22.043-43.996 23.11-3.4111 0.21017-8.8028-0.78481-11.392 1.5724 8.8881-103.26 125.63-68.051 178.67-85.565-44.657 17.072-71.463 0.59579-123.28 60.882z"/>
      <path id="path3911" stroke-width="0pt" fill="#f00" d="m-1019.3 222.7c77.844 13.841 120.29 21.297 182.67 19.582 77.251-35.391 134.39-33.987 196.79-65.819-65.793-12.694-172.21-11.305-252.65-14.176-45.069 18.718-72.223-1.39-126.81 60.414z"/>
      <path id="path3915" stroke-width="0pt" fill="#000080" d="m-717.85 249.48c-11.949-4.0584-35.21 1.8589-48.12-7.8999-18.887-14.277-47.902-11.5-69.202 0.32838 12.289-12.654 146.66-47.056 195.55-64.445l11.613-1.0616c12.645 1.4786 17.361 128.51 4.0263 127.44-4.105-0.33169-47.487 21.193-47.487 21.193 9.2332-78.959-20.804-111.85-46.377-75.55z"/>
      <path id="path3917" stroke-width="0pt" fill="#000080" d="m-624.78 304.05 61.401-18.227c4.8656-40.14 11.844-80.272-4.0263-120.5l-58.382 12.151c9.7199 42.867 7.3365 83.709 1.0066 126.58z"/>
      <path id="path3919" stroke-width="0pt" fill="#000080" d="m-671.19 326.76 2.0375-8.3032 105.78-36.217c6.0111-37.411 7.7607-77.093-4.6279-117.14l6.1107-1.3639c-10.584-12.662-2.4937 0.32346-11.501-10.778 82.969 14.538 58.627 48.176 63.289 98.868-2.5832-80.082-33.382-67.207-42.148 28.352-1.4216 6.3855-8.7392 15.202-16.441 14.884-1.3956-0.0577-1.415 0.44102-2.7144-0.0723-4.4575-1.761-16.771 3.4331-16.771 3.4331z"/>
      <path id="path3942" stroke-width="0pt" fill="#000080" d="m-1055.7 246.6-17.044 1.25c-11.259 40.241 7.0485 77.568 55.288 86.473 7.6676 1.194-14.536-25.807-7.1441-25.21 69.251 5.5947 127.6 17.577 184.44 16.699 2.8818-0.0445-4.2417 21.586-1.4318 22.06 23.264 3.9263 91.978 6.8905 100.87-1.1246-4.3933-58.486 15.647-86.299 21.427-96.689 0 0-43.248-11.717-45.945-6.7662 11.542 39.617-74.203 35.771-70.964-1.0126-19.839-0.73873-145.32-14.489-171.13-19.356 3.8976 19.034-31.651 52.152-48.375 23.675z"/>
      <path id="path3812" stroke-width="0pt" transform="matrix(1.523 -.44576 0 1.1072 -1343 7.6648)" fill="#999" d="m438 445.86c0 25.681-6.268 46.5-14 46.5s-14-20.819-14-46.5 6.268-46.5 14-46.5 14 20.819 14 46.5z"/>
      <path id="path3920" stroke-width="0pt" fill="#0e232e" d="m-697.47 264.75-0.59276 17.164-1.019 22.776-1.0385-22.176-0.59766-16.351c-2.7242 2.0786-5.1958 6.3047-7.2061 12.013l3.0618 12.136 4.0905 17.411-5.5846-12.489-3.826-9.2052c-1.5831 6.7921-2.626 14.784-2.9246 23.297l4.9968 0.95626 6.8191 2.0581-6.8779 4.7017-4.9184 2.8361c0.31606 8.0509 1.3202 15.325 2.8266 21.308l4.404-12.246 5.5552-14.514-4.1444 19.136-3.4586 14.967c2.0485 4.9864 4.5759 8.2428 7.358 9.1657l0.58296-16.166 1.0385-22.587 1.019 22.357 0.57806 16.419c2.7991-0.87182 5.405-3.9961 7.6225-8.7372l-3.728-14.639-4.1444-17.497 5.5552 12.302 5.129 12.241c2.2164-7.4585 3.7203-16.882 4.1444-27.121l-7.3041-1.3195-6.8779-1.9822 6.8191-4.7544 7.2698-4.265 0.13717 1.6439c-0.37102-11.047-2.0278-20.698-4.5118-27.611l-4.5314 12.705-5.5797 14.696 4.0856-19.044 3.2822-14.306c-2.1996-3.651-4.7632-5.587-7.5099-5.2796z"/>
      <path id="path3985" stroke-width="0pt" transform="matrix(.28571 0 0 .42857 -558.41 204.42)" fill="url(#linearGradient5792)" d="m-468 260.36c0 15.464-8.0589 28-18 28s-18-12.536-18-28 8.0589-28 18-28 18 12.536 18 28z"/>
      <path id="path4005" stroke-width="0pt" transform="matrix(.28571 0 0 .38438 -557.17 216.99)" fill="url(#linearGradient5794)" d="m-468 260.36c0 15.464-8.0589 28-18 28s-18-12.536-18-28 8.0589-28 18-28 18 12.536 18 28z"/>
      <g id="g4045" stroke-width="0pt" transform="matrix(.54915 0 0 .60569 -755.1 -16.614)">
        <path id="path4037" transform="matrix(1.523 -.44576 0 1.1072 -230.26 145.2)" fill="url(#linearGradient5796)" d="m438 445.86c0 25.681-6.268 46.5-14 46.5s-14-20.819-14-46.5 6.268-46.5 14-46.5 14 20.819 14 46.5z"/>
        <path id="path4039" fill="#0e232e" d="m415.32 402.28-0.59276 17.164-1.019 22.776-1.0385-22.176-0.59766-16.351c-2.7242 2.0786-5.1958 6.3047-7.2061 12.013l3.0618 12.136 4.0905 17.411-5.5846-12.489-3.826-9.2052c-1.5831 6.7921-2.626 14.784-2.9246 23.297l4.9968 0.95626 6.8191 2.0581-6.8779 4.7017-4.9184 2.8361c0.31606 8.0509 1.3202 15.325 2.8266 21.308l4.404-12.246 5.5552-14.514-4.1444 19.136-3.4586 14.967c2.0485 4.9864 4.5759 8.2428 7.358 9.1657l0.58296-16.166 1.0385-22.587 1.019 22.357 0.57806 16.419c2.7991-0.87182 5.405-3.9961 7.6225-8.7372l-3.728-14.639-4.1444-17.497 5.5552 12.302 5.129 12.241c2.2164-7.4585 3.7203-16.882 4.1444-27.121l-7.3041-1.3195-6.8779-1.9822 6.8191-4.7544 7.2698-4.265 0.13717 1.6439c-0.37102-11.047-2.0278-20.698-4.5118-27.611l-4.5314 12.705-5.5797 14.696 4.0856-19.044 3.2822-14.306c-2.1996-3.651-4.7632-5.587-7.5099-5.2796z"/>
        <path id="path4041" transform="matrix(.28571 0 0 .42857 554.39 341.96)" fill="url(#linearGradient5792)" d="m-468 260.36c0 15.464-8.0589 28-18 28s-18-12.536-18-28 8.0589-28 18-28 18 12.536 18 28z"/>
        <path id="path4043" transform="matrix(.28571 0 0 .38438 555.62 354.52)" fill="url(#linearGradient5794)" d="m-468 260.36c0 15.464-8.0589 28-18 28s-18-12.536-18-28 8.0589-28 18-28 18 12.536 18 28z"/>
      </g>
      <path id="path4061" stroke-width="0pt" fill="#000080" d="m-1020.2 333.95-8.307-26.388 188.68 15.138 1.1689 25.915z"/>
      <g id="g5129" stroke-width="0pt" transform="matrix(1.0087 0 0 .96013 -1125.3 -127.48)">
        <path id="path4071" fill="#2d2d2d" d="m352.29 254.45c-1.6693 0.8396-3.0678 2.4126-3.7786 4.1406-2.3497 5.7122 1.0228 12.599-0.7557 18.514-2.5253 8.3987-13.603 22.521-13.603 22.521l55.924 2.4635s4.8389-14.191 3.7787-21.336c-0.57163-3.8518-4.5757-6.5877-5.2901-10.416-0.9171-4.9142 3.6057-10.382 1.5114-14.921-1.0267-2.2252-3.6726-3.5719-6.0458-4.1833-10.298-2.6532-22.24-1.5626-31.74 3.2158zm2.7159 5.7366c7.2911-3.6775 16.467-4.527 24.372-2.4803 1.8199 0.47118 3.8435 1.514 4.6288 3.222 1.6016 3.4832-1.8614 7.6744-1.1572 11.443 0.54889 2.9376 3.6233 5.0362 4.062 7.9922 0.81376 5.4834-2.9048 16.375-2.9048 16.375l-42.911-1.8843s8.4983-10.839 10.438-17.284c1.367-4.5411-1.2113-9.8281 0.5904-14.215 0.54238-1.3206 1.6066-2.5258 2.8812-3.1687z"/>
        <path id="path4075" filter="url(#filter4078)" transform="matrix(.68767 -.087659 0 .59033 119.82 154.41)" fill="#2d2d2d" d="m320.36 284.98 17.691-24.653s-1.4369-14.657 0.62569-20.943c0.5792-1.7651 1.6487-3.4547 3.1286-4.1887 7.7071-3.8226 17.851-3.53 26.28 0.69815 2.0755 1.0411 4.1692 3.1298 5.0058 5.5848 1.8768 5.5077 4.1056 11.934 4.1056 11.934l2.773 17.944c-2.2928 7.7263 10.121-9.6617 0.0856 21.717z"/>
        <path id="path4082" fill="#666" d="m351.87 258.44-3.1184 3.61s0.85923 10.965-0.62371 16.142c-2.0764 7.2478-11.227 19.635-11.227 19.635l46.154 2.1478s4.0022-12.377 3.1185-18.602c-0.47209-3.3253-4.1566-5.0406-2.524-7.9757 1.9536-3.5122 3.504-12.943-0.59451-14.114l-4.9896-3.6473zm2.2414 5.0015 20.114-2.1625 3.8202 2.8092s-1.5416 6.6878-0.95503 9.9767c0.45254 2.5375 2.99 4.4161 3.3523 6.9681 0.67825 4.7776-2.3973 14.277-2.3973 14.277l-35.414-1.6429s7.0196-9.5074 8.6148-15.069c1.1398-3.974 0.48725-12.393 0.48725-12.393z"/>
      </g>
      <path id="path4274" filter="url(#filter5105)" stroke-width="0pt" fill="#000080" d="m-693.54 222.02 41.53-11.178 46.224-6.1134 29.033-8.5298-8.2952-24.707-66.361 22.158-39.402 6.5199-15.225 9.2913z"/>
      <path id="path4284" opacity=".37073" d="m-662.68 317.91-5.1065-10.522 99.06-31.497 0.24771 0.92447z" filter="url(#filter5109)" stroke-width="0pt" fill="#000080"/>
      <path id="path4294" opacity=".37561" d="m-1053.8 305.18 27.109 22.525 265.91 16.825-2.5694-18.887z" filter="url(#filter4304)" stroke="#000" stroke-width=".79786px" fill="#a00"/>
      <path id="path4308" opacity=".097561" d="m94.422 353.11-9.9519 24.044 292.66 17.516 34.217-36.288z" transform="matrix(.55664 0 0 .97002 -1050.3 -121.1)" filter="url(#filter4304)" stroke="#000" stroke-width=".79786px" fill="#f00"/>
      <path id="path4346" stroke-width="0pt" fill="url(#linearGradient5808)" d="m-724.84 100.37c-24.003 0.26961-49.732 3.199-78.081 10.099-20.322 6.1101-49.134 30.276-75.992 52.951 84.675-5.1171 169.37 7.8905 253.73 15.471 8.6281-21.268 20.875-58.852 12.199-65.698-5.2961-4.1788-71.846-13.272-111.85-12.822zm0.93971 4.6085c35.089 0.23269 66.271 6.1821 96.729 13.178 4.1206 19.018-1.1476 38.03-9.2093 57.047-80.397-8.1472-156.87-16.881-237.33-14.529 25.095-20.276 52.284-41.192 71.272-46.656 28.695-6.6846 54.532-9.1997 78.54-9.0405z"/>
      <path id="path4363" opacity=".43902" d="m-874.32 162.19c-2.1433-2.2661 61.885-49.282 65.698-47.785 52.684-11.407 119.03-15.915 187.08 2.8484 5.701 0-2.8524 61.847-7.2511 60.528-5.2993-1.5884-249.63-21.463-245.53-15.592z" stroke="#8b8585" stroke-width="1.463" fill="#666"/>
      <path id="path4385" opacity=".4" stroke-width="0pt" fill="url(#linearGradient5812)" d="m-704.12 165.87c11.063-19.94 22.127-38.623 33.19-54.645 18.548 2.0347 49.758 0.39919 49.502 8.1513-0.39144 11.882-4.1662 38.703-10.449 54.788-20.955-2.1607-53.488-6.7827-72.244-8.2942z"/>
      <path id="path4403" filter="url(#filter4405)" stroke-width="0pt" fill="#f00" d="m-997.86 195.16c94.926-29.707 169.21-20.51 266.76-21.205l22.055 6.8403c-102.01-2.3293-186.28-13.066-272.01 16.417z"/>
      <path id="path4770" stroke="#000" stroke-width=".2" fill="url(#linearGradient5814)" d="m-1007.4 250.08 158.79 12.708c-0.89452 15.599-6.245 30.065-15.46 40.954l-133.06-10.355c-9.2629-22.679-12.252-34.44-10.276-43.307z"/>
      <path id="path4465" stroke-width="0pt" d="m-997.77 255.45-0.31142 0.75153 13.422 4.187-11.772-0.85887-0.49829-0.16105-0.0623 0.10738-8.6577-0.61733-0.093 0.85889 9.374 0.67098 8.4397 2.6304-17.471-1.2615-0.062 0.85888 8.3462 0.61736-0.21799 0.4831 9.9656 3.1135-17.782-1.2615-0.062 0.83208 8.938 0.64416-0.218 0.56365 6.3842 1.9862-15.416-1.1273-0.093 0.85886 19.153 1.3957 7.6299 2.3888-3.052 0.4563-5.9482-0.42944-6.5711-2.0399-0.31142 0.69787 3.5191 1.1004-11.367-0.83203-0.062 0.8052 14.824 1.0736 1.1523 0.37577-10.37 1.6104-3.5503-0.26844-0.093 0.8052-2.7717 0.42949c0.11 0.28148 0.197 0.5718 0.3114 0.85886l6.4154-0.99309 8.284 0.59049 0.31142 0.10733-11.211 1.7446-0.24915-0.0267v0.0537l-2.7717 0.42947c0.1134 0.27384 0.2255 0.55335 0.3426 0.83204l3.1142-0.48314 12.737 0.93942-14.668 2.3083c0.117 0.26739 0.2224 0.53348 0.3425 0.8052l3.1766-0.50999 9.4362 0.69787-11.71 1.7983c0.11687 0.25861 0.2542 0.54283 0.37371 0.8052l15.073-2.3351 11.274 0.83203-11.741 1.7983-10.028-0.72465-0.0934 0.75147 6.7891 0.50999-10.152 1.5567c0.11861 0.25485 0.22166 0.49324 0.34257 0.75153l13.36-2.0667 11.772 0.85893-11.959 1.852-6.104-0.45628-0.0623 0.69782 3.0831 0.21472-5.232 0.8052 3.7371 0.26844 5.1385-0.80521 11.772 0.85887-4.8271 0.75153 3.6748 0.24155 4.6714-0.72471 11.834 0.85893-4.3911 0.67098 3.4568 0.24155 4.2977-0.67098 11.959 0.88569-3.924 0.61732 3.3634 0.21476 3.7994-0.59047 7.4119 0.53676 2.3357 0.7247-1.0588 0.16105 4.9828 0.34891-0.90314-0.29525 2.4291-0.37576 7.2874 0.53682 2.9274 0.91252 3.3011 0.21477-2.8651-0.88575 11.865 0.85887 2.5848 0.8052 3.3634 0.21477-2.4603-0.75154 11.772 0.85887 2.1488 0.67099 3.3946 0.24159-2.0243-0.6442 11.647 0.83208 1.8063 0.56362 3.5814 0.24158-1.7128-0.53681 1.6817 0.13421 0.0623-0.67103-4.578-0.32204-11.492-3.5697 11.803 0.85887 6.5711 2.0398c0.19526-0.22175 0.40044-0.44624 0.59167-0.67098l-3.6437-1.1273 4.3288 0.3221c0.1213-0.14844 0.22303-0.30668 0.3426-0.45629l0.0311-0.24158-7.7545-0.56365-11.274-3.516 11.211 0.83203 8.4708 2.6303c0.1867-0.24394 0.37824-0.4777 0.56054-0.72466l-5.2008-1.6373 6.0417 0.45632c0.17516-0.25143 0.35874-0.49727 0.5294-0.75153l-9.8722-0.7247-10.526-3.2745 0.59173-0.0805 9.8722 0.72469 10.09 3.0866c0.1575-0.23764 0.31347-0.4846 0.46715-0.72465l-6.8203-2.0936 7.7545 0.56365c0.15332-0.25819 0.287-0.51755 0.436-0.77836l-11.647-0.85886-3.2388-0.99308 6.0728-0.93942 8.8445 2.7645c0.15908-0.27903 0.31301-0.55021 0.46713-0.83203l-7.2874-2.2546 8.0971 0.59048v-0.18789l0.12459 0.0537c0.1334-0.26742 0.27583-0.53552 0.40487-0.8052l-9.5608-2.9524 0.93427-0.13422 9.6854 0.69787c0.10959-0.26007 0.23694-0.51646 0.3426-0.77836l-6.4777-0.48316 2.2422-0.34893-0.15567-0.69781-5.232 0.80519-5.668-0.40259-3.0831-0.96625 7.8479-1.2078 11.429 0.83204c0.0979-0.28097 0.21777-0.54922 0.3114-0.83204l-7.9413-0.59047 4.3911-0.67098-0.12459-0.77837-7.7857 1.2078-11.678-0.85892 10.838-1.6909 13.049 0.93942c0.0773-0.27455 0.14477-0.55607 0.218-0.83209l-9.5608-0.67098 6.0105-0.93942-0.18687-0.77836-9.4051 1.4494-11.896-0.83206 11.834-1.8251 13.827 1.0199c0.062-0.28608 0.1292-0.57137 0.18686-0.85886l-10.215-0.75153 5.7926-0.8857-0.18688-0.7247 4.9516 0.37577c0.0474-0.28748 0.11256-0.57019 0.15573-0.85886l-13.36-0.96626 9.3428-1.4494-0.15571-0.77835-12.737 1.9593-11.398-0.83205 21.395-3.2745-3.8928-0.26844-21.27 3.2745-10.806-0.77837 20.928-3.2745-3.7682-0.26838-20.866 3.2745-11.896-0.85892 20.772-3.2208-3.9551-0.29522-20.679 3.2208-9.0002-0.64415 20.585-3.194-3.9551-0.26838-19.744 3.0598-18.343-5.6901-3.7994-0.26843 18.997 5.9048-8.8756-0.64415-18.904-5.8512-3.924-0.26838 18.872 5.8512-12.706-0.93941-18.779-5.7974-3.6125-0.24161 18.81 5.7975-9.8722-0.7247-18.405-5.7438-3.7371-0.24155 18.312 5.6901-11.18-0.80524-16.661-5.1801zm4.9517 5.207 11.803 0.85887 8.4708 2.6303-11.834-0.85886-8.4396-2.6303zm15.322 1.1004 11.18 0.83204 8.4085 2.6035-11.18-0.80522-8.4085-2.6303zm15.011 1.1005 9.9345 0.72464 8.5642 2.6304-10.028-0.7247-8.4708-2.6303zm-33.541 0.42943 11.741 0.85886 11.99 3.7308-11.647-0.80521-12.083-3.7844zm47.025 0.53682 12.706 0.93936 3.8305 1.181-4.8582 0.75154-3.0831-0.21471-8.5954-2.6572zm-31.765 0.59048 11.834 0.85886 11.865 3.6771-11.71-0.80523-11.99-3.7307zm48.427 0.61732 3.8617 0.29521-1.9931 0.29528-1.8686-0.59049zm-33.136 0.4831 11.18 0.80519 6.4465 2.013-5.6991 0.88575h-0.0623l-11.865-3.7039zm40.766 0.0805 1.3391 0.0805 3.7371 1.181-4.578 0.72467-4.4223-1.3688 3.924-0.61736zm5.1074 0.37575 3.9551 0.26843-2.0243 0.32205-1.9308-0.59048zm-11.024 0.53681 2.834 0.88576-5.7614-0.42949 2.9274-0.45627zm18.841 0.0268 11.928 0.85892-8.7511 1.3688-2.5226-0.16105-4.6402-1.4494 3.9863-0.61732zm-38.617 0.0805 9.2182 0.67098-4.7025 0.72471-4.5157-1.3957zm-45.188 0.45628 11.71 0.83203 9.0314 2.8182-11.865-0.88569-8.8757-2.7645zm77.857 0.37577 2.7717 0.85886-5.668-0.4026 2.8963-0.45626zm-18.904 0.16105 8.3151 0.59048-4.2354 0.67098-4.0797-1.2615zm40.485 0.0537 10.775 0.77837-8.8445 1.3688-10.682-0.77837 8.7511-1.3688zm-42.697 0.13422 4.3911 1.3688-5.2008 0.80521-4.3288-1.3689 5.1385-0.80519zm-41.607 0.34887 11.647 0.83209 5.5434 1.7177-3.7994 0.59047-4.36-0.32205-9.0314-2.8182zm55.994 0.34895 0.31143 0.0267 5.7925 1.7983-6.0417 0.93942-0.56057-0.0268-5.6991-1.7714 6.1974-0.96625zm42.821 0.2147 11.398 0.83204-8.8757 1.3688-11.367-0.83202 8.8445-1.3689zm-38.648 0.0805 8.0036 0.59047-4.0797 0.61732-3.924-1.2078zm-25.662 0.13416 3.4257 1.0736-7.0694-0.50998 3.6437-0.56365zm-19.371 0.29526 8.0348 0.56365-4.142 0.64416-3.8928-1.2078zm57.832 0.50993 9.4674 0.67104-4.8271 0.75154-4.6403-1.4226zm-25.039 0.0269 4.0174 1.2347-8.1905-0.59049 4.1731-0.64418zm65.867 0.0537 11.772 0.85886-8.8445 1.3688-11.865-0.85886 8.9379-1.3688zm-43.351 0.0537 5.2008 1.6104-4.578 0.69788-5.1697-1.6104 4.5468-0.69786zm-43.475 0.21472 4.2977 1.342-5.1385 0.8052-1.744-0.13422-3.4568-1.0736 6.0417-0.93941zm3.3634 0.21471 5.7302 0.4026-2.9586 0.45631-2.7717-0.85891zm55.808 0.37577 11.367 0.83203-11.99 1.852-1.09-0.0805-5.014-1.5567 6.7268-1.0468zm-22.236 0.21471 3.8617 1.2078-7.9725-0.56364 4.1108-0.64416zm-23.918 0.0805 1.4326 0.10735 5.3254 1.6641-4.36 0.67101-2.6471-0.18789-4.7337-1.4762 4.9828-0.77836zm-42.603 0.0267 11.834 0.85886 0.18684 0.0537-6.0417 0.93942-5.9794-1.852zm21.706 0.29521 1.744 0.53682-3.5814-0.24155 1.8374-0.29527zm26.129 0.0537 7.0694 0.50994-3.6125 0.56365-3.4568-1.0736zm55.808 0.42945 11.865 0.85886-11.865 1.8251-11.959-0.85886 11.959-1.8251zm-67.86 0.24155 3.052 0.93942-6.2285-0.45631 3.1766-0.48311zm44.285 0.0268 3.0831 0.96626-6.4154-0.45627 3.3323-0.50999zm-21.738 0.10737 5.1385 1.5836-4.5157 0.69784-1.5571-0.10735-4.2977-1.342 5.232-0.83205zm-42.229 0.0268 8.7822 0.64414-4.8582 0.75154-4.3288-1.342 0.40486-0.0537zm45.531 0.13417 7.6611 0.56363-3.924 0.59049-3.7371-1.1541zm-47.711 0.18788 4.3288 1.342-4.36 0.67102-3.3011-0.24158-2.7094-0.83204 6.0417-0.9394zm59.14 0.61734 0.84084 0.0805 5.0763 1.5567-5.0451 0.77836-2.3357-0.16104-4.4222-1.342 5.886-0.91255zm-45.157 0.10735 6.104 1.9057-3.7371 0.59049-4.3911-0.3221-3.9551-1.2346 5.9794-0.93942zm2.7717 0 10.464 0.77836-5.2942 0.83204-5.1697-1.6104zm20.492 0.0804 2.398 0.7515-4.8894-0.37574 2.4914-0.37576zm26.627 0.16103 6.6645 0.45631-3.4568 0.53676-3.2077-0.99307zm-71.69 0.24157 1.0277 0.32207-2.0866-0.16104 1.0588-0.16103zm59.202 0.59048 2.5848 0.80521-5.232-0.4026 2.6471-0.40261zm22.018 0 5.7925 1.7983-3.7682 0.56363-1.6194-0.10735-5.014-1.5567 4.6091-0.69784zm-41.357 0.0537 9.1871 0.67097-4.6714 0.7247-4.5157-1.3957zm44.565 0 9.4051 0.67097-4.8582 0.75154-4.5468-1.4225zm-89.037 0.0537 8.8445 0.671-5.9482 0.91256-4.3911-1.342 1.4949-0.24155zm18.654 0.0268 2.2734 0.7247-4.6714-0.34893 2.398-0.37577zm23.482 0.0267 5.014 1.5567-4.578 0.7247-2.8028-0.21472-3.6126-1.1273 5.9794-0.93941zm-45.313 0.42946 4.3911 1.3688-3.8928 0.61734-4.5157-0.34892-2.1488-0.67102 6.1662-0.96623zm105.17 0.37576 11.928 0.85889-10.775 1.6641-4.0485-0.29522-3.7994-1.181 6.6957-1.0468zm-22.796 0.0267 3.1454 0.96623-6.3842-0.45629 3.2388-0.50994zm-66.458 0.0537 11.585 0.85887 0.43599 0.13422-5.9794 0.93941-6.1662-1.9057 0.12458-0.0268zm43.787 0.0804 5.5122 1.7178-4.4534 0.69786-2.4914-0.18788-4.2977-1.342 5.7303-0.88573zm3.0208 0.0267 9.0936 0.671-4.6403 0.72469-4.4534-1.3957zm-48.707 0.18789 6.1662 1.9325-3.2077 0.50998-5.5434-0.42945-3.4568-1.0736 6.0417-0.93938zm23.482 0.0537 1.8063 0.56365-3.6748-0.26841 1.8686-0.29524zm-44.627 0.32209-0.0934 0.24156 0.15571 0.0537-1.3391-0.10736 1.2768-0.18788zm84.054 0.48313 10.246 0.75152-5.2008 0.80519-5.0451-1.5567zm-44.814 0.0537 10.121 0.72469-5.7614 0.88571-4.9517-1.5299 0.59171-0.0805zm42.167 0 5.8237 1.7983-3.9551 0.61733-2.8651-0.21473-4.3911-1.3688 5.3877-0.83205zm-22.142 0.0267 2.616 0.80522-5.3254-0.37577 2.7094-0.42945zm44.378 0.0537 1.8686 0.56364-3.7994-0.26841 1.9308-0.29523zm-90.251 0.21473 1.8374 0.56364-3.7371-0.26841 1.8997-0.29523zm23.482 0.0537 4.9206 1.5299-4.0797 0.64416-3.7994-0.29525-3.0208-0.93939 5.9794-0.93941zm16.599 0.671 10.806 0.8052-5.5122 0.85888-5.2942-1.6641zm43.569 0.0537 5.7925 1.7983-4.2354 0.67099-3.8617-0.29524-3.8928-1.2078 6.1974-0.96624zm-22.983 0.0537 2.5537 0.77836-5.2008-0.37576 2.6471-0.4026zm26.129 0 9.0625 0.671 0.18684 0.0537-4.578 0.72469-4.6714-1.4494zm-92.213 0.0268 10.651 0.77836 0.96542 0.29524-6.1662 0.96624-6.1974-1.9325 0.74744-0.10736zm43.413 0.10736 5.5122 1.7178-4.1731 0.64417-3.5191-0.26841-3.7994-1.181 5.9794-0.91256zm-45.717 0.24156 6.2285 1.9325-2.7406 0.42943-12.737-0.9394 9.2494-1.4225zm23.482 0.0805 1.2768 0.40261-2.616-0.18788 1.3391-0.21473zm83.961 0.50998h0.0623l11.679 0.83204-6.0105 0.9394-5.7303-1.7714zm-44.316 0.0537 10.869 0.8052-5.5434 0.85889-5.3254-1.6641zm-2.2734 0.13421 5.7614 1.7983-4.2354 0.67099-3.488-0.26839-4.0797-1.2615 6.0417-0.9394zm-42.261 0.0537 9.5919 0.69785 0.12458 0.0537-6.104 0.9394-4.7648-1.503 1.1523-0.18789zm64.683 0 2.1177 0.64416-4.2666-0.32207 2.1488-0.32209zm22.236 0.0537 5.6991 1.7983-3.0208 0.45628-3.0208-0.21472-4.2665-1.3152 4.6091-0.72469zm-67.548 0.0537 2.1177 0.67101-4.3288-0.32209 2.2111-0.34892zm-22.236 0.34892 4.796 1.4762-3.6748 0.56364-4.9517-0.34893-2.3046-0.72468 6.1351-0.96625zm62.41 0.45629 10.775 0.8052 0.18685 0.0537-5.4811 0.85888-5.4811-1.7178zm-45.935 0.0805 11.242 0.83204-6.0105 0.9394-5.5122-1.7178 0.28028-0.0537zm66.708 0.0804 2.3357 0.72467-4.796-0.34891 2.4603-0.37576zm-23.014 0.0537 5.7614 1.7983-3.924 0.61732-3.5503-0.26839-4.0174-1.2615 5.7302-0.88572zm-22.921 0.0537 2.2423 0.69784-4.6091-0.34892 2.3668-0.34892zm-22.828 0.1342 5.5122 1.7178-3.7371 0.56364-4.6091-0.32207-3.27-1.0199 6.104-0.9394zm-22.08 0.34893 0.84086 0.2684-1.7128-0.13422 0.87199-0.13418zm84.864 0.34891 11.678 0.85888-6.0728 0.93941-5.8237-1.7714 0.21798-0.0268zm-45.935 0.0804 11.616 0.83204 0.12456 0.0537-5.9794 0.91256-5.7614-1.7983zm21.333 0.18789 2.3668 0.72468-4.796-0.34892 2.4291-0.37576zm22.516 0.0268 5.7925 1.7983-3.5191 0.56364-3.8928-0.29524-3.8617-1.2078 5.4811-0.85889zm-87.075 0.0267 8.4085 0.61732 0.59171 0.18787-11.087 1.7178-9.4674-0.69784 11.554-1.8251zm41.42 0.0268 5.7925 1.7983-3.706 0.56364-4.6091-0.32208-3.5191-1.1004 6.0417-0.93941zm67.704 0 1.2457 0.40259-2.5537-0.21471 1.308-0.18788zm-90.563 0.16104 1.6194 0.50996-3.3323-0.24156 1.7128-0.2684zm86.296 0.64416 8.9068 0.64416 1.2145 0.37576-4.5468 0.69785-5.5745-1.7178zm-46.278 0.0537 11.741 0.85888-5.9794 0.9394-5.7614-1.7983zm-45.219 0.10735 10.152 0.72468 0.56056 0.18789-6.1662 0.9394-5.5122-1.7178 0.96542-0.1342zm89.161 0.0537 5.8859 1.8251-3.7371 0.56365-4.6402-0.32209-3.6126-1.1273 6.104-0.9394zm-22.89 0.0804 2.0243 0.64415-4.142-0.32207 2.1177-0.32208zm-22.952 0.0537 5.7925 1.7983-3.5814 0.53681-4.6714-0.32207-3.5191-1.1004 5.9794-0.91257zm-23.077 0.0537 1.8374 0.56363-3.7682-0.2684 1.9308-0.29523zm-22.765 0.13418 5.5434 1.7178-3.4257 0.53681-11.305-0.83205 9.1871-1.4225zm63.064 0.64418 11.149 0.80519 0.34257 0.10737-5.7302 0.88573-5.7614-1.7983zm-45.717 0.0537 10.62 0.77835 0.59171 0.18789-6.104 0.93939-5.7614-1.7983 0.65399-0.10734zm43.88 0.21471 5.7614 1.7983-3.6125 0.56364-4.7025-0.34892-3.4568-1.0736 6.0105-0.93941zm22.485 0 1.7751 0.56364-3.6125-0.2684 1.8374-0.29524zm21.987 0.0537 8.3773 2.6035-2.5848-0.18789-0.12459-0.50995-2.18 0.32208-4.0174-0.29524-4.0174-1.2346 4.5468-0.69785zm-67.611 0.0267 1.8063 0.56365-3.706-0.2684 1.8997-0.29525zm-23.108 0.0805 5.7614 1.7714-3.3323 0.50996-5.6057-0.4026-2.9897-0.93941 6.1662-0.9394zm63.344 0.671 10.588 0.77837 0.68515 0.21471-5.5745 0.85888-5.8548-1.8251 0.15571-0.0268zm-45.624 0.0805 10.526 0.77835 0.62286 0.18789-6.0417 0.93939-5.7614-1.7983 0.65398-0.10735zm66.427 0.16103 2.0243 0.61732-4.142-0.29524 2.1177-0.32208zm-22.921 0.0805 5.8548 1.8251-3.3011 0.50996-4.7337-0.34892-3.5502-1.1004 5.7302-0.88572zm-22.859 0.0804 1.6817 0.50996-3.4257-0.24155 1.744-0.26841zm-23.077 0.0537 5.7614 1.7983-3.2077 0.48312-5.6368-0.4026-2.9897-0.93941 6.0728-0.9394zm-23.014 0.0537 1.526 0.48312-3.1454-0.24156 1.6194-0.24156zm86.203 0.61732 11.118 0.8052 0.5294 0.16104-6.0728 0.9394-6.0106-1.852 0.43597-0.0537zm-45.406 0.0804 10.402 0.77836 0.65399 0.18788-5.9794 0.9394-5.7614-1.7983 0.68515-0.10737zm-45.749 0.0805 9.6542 0.69783 1.0277 0.32209-10.682 1.6372-11.741-0.85888 11.741-1.7983zm66.334 0.18788 1.8686 0.59049-3.7994-0.29525 1.9308-0.29524zm22.516 0 5.9794 1.852-2.9897 0.45628-5.1074-0.37575-3.4568-1.0736 5.5745-0.85888zm-45.562 0.10735 5.7614 1.7983-3.1454 0.48313-5.668-0.4026-2.9897-0.93941 6.0417-0.93941zm-23.108 0.0805 1.4014 0.42944-2.834-0.21471 1.4326-0.21473zm40.735 0.671 10.682 0.77836 0.62285 0.18789-6.0105 0.93939-5.886-1.8251 0.59172-0.0804zm-45.562 0.0537 9.4985 0.69784 1.09 0.34892-6.1974 0.96625-5.7302-1.7983 1.3391-0.21472zm65.96 0.24156 1.6194 0.50997-3.3011-0.24156 1.6817-0.26841zm-22.859 0.0805 5.886 1.8251-3.0208 0.45628-5.7614-0.4026-3.0831-0.96624 5.9794-0.91257zm-23.014 0.0804 1.3391 0.40261-2.7094-0.18788 1.3703-0.21473zm-22.983 0.0537 5.7302 1.7983-2.834 0.42943-11.741-0.85889 8.8445-1.3688zm63.624 0.59047 10.215 0.75154 0.96542 0.29523-5.7302 0.88573-5.9482-1.852 0.49827-0.0805zm-45.406 0.0805 9.3428 0.69784 1.2146 0.37576-6.104 0.9394-5.7614-1.7983 1.308-0.21471zm43.101 0.26839 5.9482 1.8788-3.0208 0.45628-5.7925-0.42944-3.1454-0.96625 6.0105-0.9394zm22.516 0 1.4014 0.42945-2.834-0.21472 1.4326-0.21473zm-45.593 0.10737 1.4014 0.42943-2.834-0.21471 1.4326-0.21472zm-23.046 0.0805 5.7925 1.7983-2.7717 0.42945-6.7268-0.48312-2.4603-0.77837 6.1662-0.96624zm18.218 0.67101 9.4674 0.69784 1.2146 0.37576-6.0417 0.9394-5.8548-1.8251 1.2146-0.18788zm-45.562 0.0805 11.772 0.85888-11.959 1.852-11.772-0.85885 11.959-1.852zm88.414 0.21472 8.6888 2.7108-11.242-0.83204-3.1766-0.99307 5.7302-0.88574zm-22.828 0.0804 1.308 0.40261-2.7094-0.18788 1.4014-0.21473zm-23.014 0.0805 5.8548 1.8251-2.6471 0.40261-6.7268-0.48311-2.5848-0.80521 6.104-0.9394zm-22.952 0.0804 0.99655 0.29525-2.0243-0.13421 1.0277-0.16104zm41.139 0.56364 9.4051 0.69786 1.3703 0.42943-5.9794 0.91255-5.9482-1.852 1.1523-0.18789zm-45.468 0.10737 8.4396 0.61732 1.6506 0.50996-10.215 1.5836-11.803-0.88571 11.928-1.8251zm65.586 0.24155 1.4949 0.48313-3.052-0.24156 1.5571-0.24157zm-23.077 0.10736 5.9482 1.852-2.616 0.40259-6.6645-0.48312-2.6783-0.83204 6.0105-0.93941zm-23.014 0.10736 0.93428 0.29524-1.9308-0.13419 0.99656-0.16105zm-8.0036 0.37577 0.31142 0.0268-0.15571 0.0267-0.15571-0.0537zm49.143 0.18788 9.7165 0.69785 11.243 3.516-11.803-0.85887-10.215-3.194 1.0588-0.16104zm-45.437 0.0805 8.4397 0.61732 1.7128 0.53679-6.2285 0.96625-5.8237-1.8251 1.8997-0.29524zm42.51 0.37575 8.4708 2.6303-11.71-0.85889-2.7406-0.85887 5.9794-0.91258zm-23.014 0.0805 0.99656 0.32206-2.0243-0.16103 1.0277-0.16103zm-22.952 0.0805 5.8237 1.8251-2.3668 0.37576-11.959-0.88571 8.502-1.3152zm15.135 0.32208 0.31143 0.0267-0.15572 0.0268-0.15571-0.0537zm3.5191 0.26841 8.4085 0.61731 1.8374 0.56364-6.0728 0.9394-5.9482-1.852 1.7751-0.26838zm19.526 0.42942 1.0589 0.3221-2.1488-0.16106 1.09-0.16104zm-23.014 0.10737 5.9483 1.852-2.2423 0.34893-7.6611-0.56365-2.2111-0.69784 6.1662-0.9394zm15.384 0.32208 0.31143 0.0267-0.15571 0.0269-0.15572-0.0537zm3.3011 0.24155 8.5019 0.61733 11.429 3.5697-11.803-0.8589-9.8099-3.0598 1.6817-0.26841zm-3.488 0.5368 8.1282 2.523-11.896-0.85888-2.3046-0.72469 6.0728-0.93941zm-22.921 0.0805 0.71627 0.21472-1.4637-0.10737 0.74742-0.10735zm38.368 0.2684 11.71 0.85887 11.429 3.5429-11.678-0.83204-11.46-3.5697zm-23.232 0.85887 0.65399 0.21473-1.3391-0.10736 0.68514-0.10737zm-8.4708 0.21473 1.7128 0.13419-0.872 0.13422-0.84083-0.26841z"/>
      <path id="path5053" opacity=".25854" d="m108 380.36c0 16.016-14.327 29-32 29s-32-12.984-32-29 14.327-29 32-29 32 12.984 32 29z" transform="matrix(.99599 .38518 -1.0982 1.2742 -456.26 -262.6)" stroke-width="0pt" fill="#2d2d2d"/>
      <path id="path5055" opacity=".25854" d="m108 380.36c0 16.016-14.327 29-32 29s-32-12.984-32-29 14.327-29 32-29 32 12.984 32 29z" transform="matrix(.67652 .11956 -.41426 1.1062 -928.68 -193.14)" stroke-width="0pt" fill="#2d2d2d"/>
      <path id="path4186" stroke-width="0pt" transform="matrix(.65263 .24524 -.51214 1.0236 -888 -175.19)" fill="#999" d="m108 380.36c0 16.016-14.327 29-32 29s-32-12.984-32-29 14.327-29 32-29 32 12.984 32 29z"/>
      <path id="path4790" stroke-width="0pt" transform="matrix(.62029 .20330 -.51245 .91695 -885.4 -129.14)" fill="url(#linearGradient5818)" d="m108 380.36c0 16.016-14.327 29-32 29s-32-12.984-32-29 14.327-29 32-29 32 12.984 32 29z"/>
      <path id="path4818" stroke-linejoin="round" d="m87.788 345.83c-8.3837 2.174-17.266 8.3316-22.896 16.572-0.22568 0.33032-0.4185 0.65985-0.62905 0.9898 9.8602-5.7392 20.627-8.4436 29.085-6.553 6.4642 1.445 10.476 5.3215 11.898 10.594 4.9199-10.289 2.3783-19.601-6.6896-21.919-3.2515-0.83104-6.9577-0.67208-10.769 0.31611z" transform="matrix(.92081 -.24673 .21720 .81060 -1188.7 -49.799)" filter="url(#filter4997)" stroke="#1e1515" stroke-linecap="round" stroke-width=".053017" fill="url(#linearGradient5820)"/>
      <path id="path4833" d="m-552.57 493.89 11.788-20.629" transform="matrix(.10346 -.056910 .069539 .11446 -1024.7 140.02)" filter="url(#filter4907)" stroke="#000" stroke-width="1px" fill="none"/>
      <path id="path4835" d="m-530.47 489.47 16.209-27.997" transform="matrix(.10346 -.056910 .069539 .11446 -1024.7 140.02)" filter="url(#filter4903)" stroke="#000" stroke-width="1px" fill="none"/>
      <path id="path4837" d="m-506.89 486.53 16.209-32.418" transform="matrix(.10346 -.056910 .069539 .11446 -1024.7 140.02)" filter="url(#filter4899)" stroke="#000" stroke-width="1px" fill="none"/>
      <path id="path4839" d="m-480.37 486.53 17.682-44.206" transform="matrix(.10346 -.056910 .069539 .11446 -1024.7 140.02)" filter="url(#filter4895)" stroke="#000" stroke-width="1px" fill="none"/>
      <path id="path4841" d="m-450.9 486.53 27.997-53.047" transform="matrix(.10346 -.056910 .069539 .11446 -1024.7 140.02)" filter="url(#filter4891)" stroke="#000" stroke-width="1px" fill="none"/>
      <path id="path4843" d="m-417.01 493.89 25.05-64.835" transform="matrix(.10346 -.056910 .069539 .11446 -1024.7 140.02)" filter="url(#filter4887)" stroke="#000" stroke-width="1px" fill="none"/>
      <path id="path4845" d="m-380.17 490.95 23.576-69.256" transform="matrix(.10346 -.056910 .069539 .11446 -1024.7 140.02)" filter="url(#filter4883)" stroke="#000" stroke-width="1px" fill="none"/>
      <path id="path4847" d="m-356.59 505.68 27.997-72.203" transform="matrix(.10346 -.056910 .069539 .11446 -1024.7 140.02)" filter="url(#filter4879)" stroke="#000" stroke-width="1px" fill="none"/>
      <path id="path4849" d="m-333.02 513.05 32.418-73.676" transform="matrix(.10346 -.056910 .069539 .11446 -1024.7 140.02)" filter="url(#filter4875)" stroke="#000" stroke-width="1px" fill="none"/>
      <path id="path4851" d="m-312.39 521.89 35.365-72.203" transform="matrix(.10346 -.056910 .069539 .11446 -1024.7 140.02)" filter="url(#filter4871)" stroke="#000" stroke-width="1px" fill="none"/>
      <path id="path4853" d="m-299.13 542.52 44.206-83.991" transform="matrix(.10346 -.056910 .069539 .11446 -1024.7 140.02)" filter="url(#filter4867)" stroke="#000" stroke-width="1px" fill="none"/>
      <path id="path4855" d="m-284.39 563.15 47.153-81.044" transform="matrix(.10346 -.056910 .069539 .11446 -1024.7 140.02)" filter="url(#filter4863)" stroke="#000" stroke-width="1px" fill="none"/>
      <path id="path4857" d="m-278.5 586.73c5.8941-5.8941 32.418-36.838 32.418-36.838" transform="matrix(.10346 -.056910 .069539 .11446 -1024.7 140.02)" filter="url(#filter4859)" stroke="#000" stroke-width="1px" fill="none"/>
      <path id="path4911" stroke="#909090" stroke-width=".1257px" fill="none" d="m-1047.6 228-0.2149-3.0322"/>
      <path id="path4913" stroke="#909090" stroke-width=".1257px" fill="none" d="m-1045.6 226.24-0.2697-4.1271"/>
      <path id="path4915" stroke="#909090" stroke-width=".1257px" fill="none" d="m-1043.4 224.56-0.5773-4.6331"/>
      <path id="path4917" stroke="#909090" stroke-width=".1257px" fill="none" d="m-1040.6 223.05-1.2446-6.0663"/>
      <path id="path4919" stroke="#909090" stroke-width=".1257px" fill="none" d="m-1037.6 221.38-0.7921-7.6653"/>
      <path id="path4921" stroke="#909090" stroke-width=".1257px" fill="none" d="m-1033.5 220.29-1.9168-8.8469"/>
      <path id="path4923" stroke="#909090" stroke-width=".1257px" fill="none" d="m-1029.9 217.86-2.3766-9.269"/>
      <path id="path4925" stroke="#909090" stroke-width=".1257px" fill="none" d="m-1026.5 218.2-2.1241-9.858"/>
      <path id="path4927" stroke="#909090" stroke-width=".1257px" fill="none" d="m-1023.5 217.7-1.7691-10.278"/>
      <path id="path4929" stroke="#909090" stroke-width=".1257px" fill="#ff0" d="m-1020.8 217.54-1.3613-10.277"/>
      <path id="path4931" stroke="#909090" stroke-width=".1257px" fill="none" d="m-1018 219.15-1.2669-12.13"/>
      <path id="path4933" stroke="#909090" stroke-width=".1257px" fill="none" d="m-1015 220.67-0.757-11.96"/>
      <path id="path4935" stroke="#909090" stroke-width=".1257px" d="m-1012.8 223.03c0.1999-1.0101 0.7924-6.0615 0.7924-6.0615"/>
      <path id="path5035" opacity=".91707" d="m325.61 401.15c0 6.9054-5.248 12.503-11.722 12.503-6.4738 0-11.722-5.5979-11.722-12.503 0-6.9054 5.248-12.503 11.722-12.503 6.4738 0 11.722 5.5979 11.722 12.503z" transform="matrix(.54223 -.14529 .12655 .47230 -1254.7 96.172)" stroke-width="0pt" fill="url(#linearGradient5822)"/>
      <path id="path5037" opacity=".91707" d="m325.61 401.15c0 6.9054-5.248 12.503-11.722 12.503-6.4738 0-11.722-5.5979-11.722-12.503 0-6.9054 5.248-12.503 11.722-12.503 6.4738 0 11.722 5.5979 11.722 12.503z" transform="matrix(.54223 -.14529 .12655 .47230 -1254.7 96.172)" stroke-width="0pt" fill="#ff0"/>
      <path id="path4188" stroke-width="0pt" transform="matrix(.92968 .35954 -1.0251 1.1894 -479.03 -228.38)" fill="#2d2d2d" d="m108 380.36c0 16.016-14.327 29-32 29s-32-12.984-32-29 14.327-29 32-29 32 12.984 32 29z"/>
      <path id="path4792" stroke-width="0pt" transform="matrix(.90385 .34755 -.99665 1.1497 -489.07 -211.17)" fill="url(#linearGradient5826)" d="m108 380.36c0 16.016-14.327 29-32 29s-32-12.984-32-29 14.327-29 32-29 32 12.984 32 29z"/>
      <path id="path4937" stroke-linejoin="round" d="m-794.18 217.89c-13.96 3.8292-28.749 14.675-38.123 29.189-0.37575 0.58181-0.69684 1.1622-1.0474 1.7434 16.418-10.109 34.345-14.872 48.428-11.542 10.763 2.5451 17.443 9.3732 19.812 18.66 8.192-18.123 3.96-34.525-11.139-38.607-5.414-1.4638-11.585-1.1838-17.93 0.55678z" stroke="#1e1515" stroke-linecap="round" stroke-width=".090795" fill="url(#linearGradient5828)"/>
      <path id="path4939" d="m-552.57 493.89 11.788-20.629" transform="matrix(.19847 -.059918 .064982 .27324 -750.25 82.539)" filter="url(#filter4907)" stroke="#000" stroke-width="1px" fill="none"/>
      <path id="path4941" d="m-530.47 489.47 16.209-27.997" transform="matrix(.15371 -.037336 .050309 .14492 -760.9 147.54)" filter="url(#filter4903)" stroke="#000" stroke-width="1px" fill="none"/>
      <path id="path4943" d="m-506.89 486.53 16.209-32.418" transform="matrix(.15371 -.037336 .050309 .14492 -760.9 147.54)" filter="url(#filter4899)" stroke="#000" stroke-width="1px" fill="none"/>
      <path id="path4945" d="m-480.37 486.53 17.682-44.206" transform="matrix(.15371 -.037336 .050309 .14492 -760.9 147.54)" filter="url(#filter4895)" stroke="#000" stroke-width="1px" fill="none"/>
      <path id="path4947" d="m-450.9 486.53 27.997-53.047" transform="matrix(.15371 -.037336 .050309 .14492 -760.9 147.54)" filter="url(#filter4891)" stroke="#000" stroke-width="1px" fill="none"/>
      <path id="path4949" d="m-417.01 493.89 25.05-64.835" transform="matrix(.15371 -.037336 .050309 .14492 -760.9 147.54)" filter="url(#filter4887)" stroke="#000" stroke-width="1px" fill="none"/>
      <path id="path4951" d="m-380.17 490.95 23.576-69.256" transform="matrix(.15371 -.037336 .050309 .14492 -760.9 147.54)" filter="url(#filter4883)" stroke="#000" stroke-width="1px" fill="none"/>
      <path id="path4953" d="m-356.59 505.68 27.997-72.203" transform="matrix(.15371 -.037336 .050309 .14492 -760.9 147.54)" filter="url(#filter4879)" stroke="#000" stroke-width="1px" fill="none"/>
      <path id="path4955" d="m-333.02 513.05 32.418-73.676" transform="matrix(.15371 -.037336 .050309 .14492 -760.9 147.54)" filter="url(#filter4875)" stroke="#000" stroke-width="1px" fill="none"/>
      <path id="path4957" d="m-312.39 521.89 35.365-72.203" transform="matrix(.15371 -.037336 .050309 .14492 -760.9 147.54)" filter="url(#filter4871)" stroke="#000" stroke-width="1px" fill="none"/>
      <path id="path4959" d="m-299.13 542.52 44.206-83.991" transform="matrix(.15371 -.037336 .050309 .14492 -760.9 147.54)" filter="url(#filter4867)" stroke="#000" stroke-width="1px" fill="none"/>
      <path id="path4961" d="m-284.39 563.15 47.153-81.044" transform="matrix(.15371 -.037336 .050309 .14492 -760.9 147.54)" filter="url(#filter4863)" stroke="#000" stroke-width="1px" fill="none"/>
      <path id="path4963" d="m-278.5 586.73c5.8941-5.8941 32.418-36.838 32.418-36.838" transform="matrix(.19847 -.059918 .064982 .27324 -750.25 82.539)" filter="url(#filter4859)" stroke="#000" stroke-width="1px" fill="none"/>
      <path id="path4965" stroke="#909090" stroke-width=".41994px" fill="none" d="m-825.86 246.6 3.0312-6.3431"/>
      <path id="path4967" stroke="#909090" stroke-width=".15542px" fill="none" d="m-817.81 238.28 1.0829-4.6625"/>
      <path id="path4969" stroke="#909090" stroke-width=".15542px" fill="none" d="m-814.34 236.98 0.86064-5.3032"/>
      <path id="path4971" stroke="#909090" stroke-width=".15542px" fill="none" d="m-810.26 235.98 0.49405-7.0666"/>
      <path id="path4973" stroke="#909090" stroke-width=".15542px" fill="none" d="m-805.73 234.88 1.6348-8.733"/>
      <path id="path4975" stroke="#909090" stroke-width=".15542px" fill="none" d="m-800.15 234.69 0.5887-10.331"/>
      <path id="path4977" stroke="#909090" stroke-width=".15542px" fill="none" d="m-794.64 232.88 0.13981-10.917"/>
      <path id="path4979" stroke="#909090" stroke-width=".15542px" fill="none" d="m-790.27 234.14 0.67105-11.509"/>
      <path id="path4981" stroke="#909090" stroke-width=".15542px" fill="none" d="m-786.28 234.33 1.2765-11.888"/>
      <path id="path4983" stroke="#909090" stroke-width=".15542px" fill="none" d="m-782.66 234.84 1.8036-11.784"/>
      <path id="path4985" stroke="#909090" stroke-width=".15542px" fill="#f60" d="m-779.58 237.33 2.5694-13.823"/>
      <path id="path4987" stroke="#909090" stroke-width=".15542px" fill="#ff0" d="m-776.28 239.77 3.1707-13.506"/>
      <path id="path4989" stroke="#909090" stroke-width=".15542px" fill="#ff0" d="m-774.19 242.97c0.60946-1.0743 3.1297-6.549 3.1297-6.549"/>
      <path id="path5005" opacity=".20976" stroke-width="0pt" fill="url(#linearGradient5830)" d="m-838.76 271.95 27.611-19.276c19.027-5.5644 21.978-0.41233 20.318 7.8146l-10.419 24.486c-13.456 1.3754-27.99 9.2192-37.51-13.024z"/>
      <path id="path5015" opacity=".91707" d="m325.61 401.15c0 6.9054-5.248 12.503-11.722 12.503-6.4738 0-11.722-5.5979-11.722-12.503 0-6.9054 5.248-12.503 11.722-12.503 6.4738 0 11.722 5.5979 11.722 12.503z" transform="matrix(.93333 0 0 .8125 -1095.8 -65.708)" stroke-width="0pt" fill="url(#linearGradient5822)"/>
      <path id="path5025" opacity=".91707" d="m325.61 401.15c0 6.9054-5.248 12.503-11.722 12.503-6.4738 0-11.722-5.5979-11.722-12.503 0-6.9054 5.248-12.503 11.722-12.503 6.4738 0 11.722 5.5979 11.722 12.503z" transform="matrix(.93333 0 0 .8125 -1095.8 -65.708)" stroke-width="0pt" fill="#ff0"/>
      <path id="path5043" opacity=".91707" d="m306.33 414.17c0 6.0422-7.3473 10.94-16.411 10.94-9.0633 0-16.411-4.8982-16.411-10.94 0-6.0422 7.3473-10.94 16.411-10.94 9.0633 0 16.411 4.8982 16.411 10.94z" transform="matrix(.79365 0 0 .66667 -1054.3 3.1258)" stroke-width="0pt" fill="url(#linearGradient5836)"/>
      <path id="path5113" filter="url(#filter5123)" stroke-width="0pt" fill="#f00" d="m-753.25 228.16c-1.9672-7.7348-13.079-31.527-22.84-35.365l124.51-16.209c6.1814 0.28613 14.167-0.32986 12.893 3.6838z"/>
      <path id="path4366" stroke-width="0pt" fill="#f00" d="m-631.73 183.88c10.701-10.917 11.004-3.9369 13.092-35.504 0.2572-3.889 4.8668-6.6256 8.4905-8.0391 17.566-5.0537 45.561-6.3807 43.451 16.58-0.74729 16.153-27.392 9.2552-37.958 11.556-3.9863 0.83624-6.9921 17.585-6.9921 17.585s-12.828 3.0932-11.487-0.50226c3.1145-8.3516-8.5967-1.6762-8.5967-1.6762z"/>
      <path id="path4373" opacity=".63902" stroke-width="0pt" fill="#fff" d="m-863.07 158.82c21.321-20.559 44.351-36.922 68.79-46.144h6.6879c-32.045 20.132-49.65 34.687-59.236 46.144z"/>
      <path id="path5200" opacity=".10244" style="color:#000000;text-transform:none;text-indent:0pt" fill="url(#linearGradient5842)" d="m-568.86 163.49-0.34375 0.0937-39.031 10.312-0.125 0.0312-0.0937 0.0937-11.062 10.312-0.28125 0.25 0.1875 0.34375s1.9145 3.5339 3.9688 8.0625 4.2353 10.065 4.8125 13.875c2.2892 15.112 0.47872 38.144-1.9375 57.344s-5.4062 34.594-5.4062 34.594l-0.15625 0.78125 0.78125-0.21875 55.25-16.219 0.28125-0.0625 0.0625-0.28125s3.5931-15.856 6.5-35.031 5.1519-41.665 2.3438-55.094c-1.1424-5.4628-5.0237-12.629-8.625-18.5-3.6013-5.8715-6.9375-10.406-6.9375-10.406l-0.1875-0.28125zm-0.40625 1.1562c0.17291 0.2368 3.207 4.3568 6.6875 10.031 3.578 5.8335 7.4157 13.034 8.5 18.219 2.7401 13.103 0.55702 35.584-2.3438 54.719-2.8652 18.9-6.3511 34.306-6.4375 34.688l-54.188 15.875c0.22589-1.1729 2.9266-15.382 5.25-33.844 2.4207-19.236 4.2921-42.288 1.9688-57.625-0.61132-4.0356-2.8371-9.5636-4.9062-14.125-1.983-4.3713-3.6933-7.4998-3.8438-7.7812l10.719-9.9688 38.594-10.188z"/>
      <path id="path5364" opacity=".20488" style="color:#000000;text-transform:none;text-indent:0pt" fill="url(#linearGradient5844)" d="m-859.48 161.9c-25.944 5.2841-56.21 7.6864-83.406 13.281-27.197 5.5948-51.377 14.371-65.094 32.656l-0.4375 0.5625 0.5625 0.40625c2.7422 2.1666 4.7694 3.2537 5.9062 5.5625 1.1369 2.3088 1.4655 6.0699 0.4375 13.688l-0.094 0.75 0.75 0.0625c56.447 3.5949 118.03 2.7365 173.16 5.875l0.5625 0.0312 0.15625-0.53125c0.87987-2.9857 3.6138-6.251 7.4062-9.375s8.5939-6.1073 13.469-8.625c4.8749-2.5177 9.8521-4.5686 13.938-5.875 2.0427-0.65321 3.8661-1.1344 5.3438-1.375 1.4777-0.24064 2.6087-0.23215 3.1562-0.0625l0.40625-1.3438c-0.97244-0.30127-2.2345-0.22573-3.8125 0.0312-1.578 0.25698-3.4416 0.73804-5.5312 1.4062-4.1792 1.3364-9.1836 3.4167-14.125 5.9688-4.9414 2.552-9.8162 5.5665-13.719 8.7812-3.7034 3.0507-6.5022 6.2816-7.6562 9.5625-54.849-3.0991-115.92-2.3153-171.94-5.8438 0.8944-7.1117 0.63714-11.123-0.6562-13.75-1.2408-2.5198-3.3388-3.7882-5.7188-5.5938 13.448-17.443 37.028-26.084 63.813-31.594 27.073-5.5694 57.335-7.9712 83.406-13.281l-0.28125-1.375z"/>
      <path id="path5611" stroke="#000" stroke-width="1px" fill="none" d="m-587.66 199.01z"/>
      <path id="path5617" opacity=".50244" d="m-563.3 189.26-1.4155 4.1907-11.392 3.1913-1.8788-2.6732z" filter="url(#filter5619)" stroke-width="0pt" fill="#364e59"/>
      <path id="path5615" stroke-width="0pt" fill="url(#linearGradient5846)" d="m-583.06 190.12 4.584 3.7826 15.819-3.7966 0.40097-4.2136z"/>
      <path id="path5639" opacity=".62927" d="m-724.98 240.82c0 7.1208-6.7622 12.893-15.104 12.893-8.3415 0-15.104-5.7726-15.104-12.893 0-7.1208 6.7622-12.893 15.104-12.893 8.3415 0 15.104 5.7726 15.104 12.893z" transform="matrix(1.1269 0 0 1.0303 95.772 -6.9189)" filter="url(#filter5641)" stroke-width="0pt" fill="#fff"/>
    </g>
    <text id="text3125" font-size="14px" xml:space="preserve" transform="translate(0 727.36)" y="153" x="106" font-family="Bitstream Vera Sans" fill="#000000">
      <tspan id="tspan3127" y="153" x="106"/>
    </text>
    <path id="path3129" d="m453 163-13.372 1.4155-6.4145 11.818-5.4783-12.28-13.221-2.4487 9.9858-9.0048-1.7568-13.331 11.65 6.7144 12.136-5.7904-2.7858 13.155l9.25 9.74z" fill="#ff0" transform="translate(0 727.36)"/>
    <path id="path3131" d="m478 209-13.681 3.7898-4.634 13.418-7.8319-11.84l-14.2-0.26 8.84-11.11-4.1382-13.58 13.296 4.9754 11.636-8.132-0.62333 14.182 11.33 8.56z" fill="#ff0" transform="translate(0 727.36)"/>
    <rect id="rect3137" transform="translate(0 727.36)" height="20" width="94" y="245" x="115" fill="#fff"/>
    <rect id="rect3143" transform="translate(0 727.36)" height="18" width="10" y="245" x="104" fill="#000080"/>
    <text id="text3145" font-size="14px" xml:space="preserve" transform="translate(0 727.36)" y="259" x="105" font-family="Bitstream Vera Sans" fill="#ffffff">
      <tspan id="tspan3147" y="259" x="105">D</tspan>
    </text>
    <text id="text3149" font-size="14" xml:space="preserve" transform="translate(0 727.36)" y="262" x="120" font-family="Bitstream Vera Sans" fill="#000000">
      <tspan id="tspan3151" y="262" x="120">CO AD 133</tspan>
    </text>
    <text id="text3153" font-size="40px" xml:space="preserve" transform="translate(0 727.36)" y="173" x="485" font-family="Bitstream Vera Sans" fill="#000000">
      <tspan id="tspan3155" y="173" x="485"/>
    </text>
    <text id="text3157" font-size="40px" xml:space="preserve" transform="translate(0 727.36)" y="143" x="474" font-family="Bitstream Vera Sans" fill="#000000">
      <tspan id="tspan3159" y="143" x="474"/>
    </text>
    <text id="text3161" font-size="40px" xml:space="preserve" transform="translate(0 727.36)" y="157" x="476" font-family="Bitstream Vera Sans" fill="#000000">
      <tspan id="tspan3163" y="157" x="476">57</tspan>
    </text>
    <rect id="rect3170" transform="translate(0 727.36)" height="44" width="53" stroke="#f00" y="121" x="474" stroke-width="3" fill="none"/>
  </g>
  <metadata>
    <rdf:RDF>
      <cc:Work>
        <dc:format>image/svg+xml</dc:format>
        <dc:type rdf:resource="http://purl.org/dc/dcmitype/StillImage"/>
        <cc:license rdf:resource="http://creativecommons.org/licenses/publicdomain/"/>
        <dc:publisher>
          <cc:Agent rdf:about="http://openclipart.org/">
            <dc:title>Openclipart</dc:title>
          </cc:Agent>
        </dc:publisher>
        <dc:title>Red Blue Convertible Sports Car</dc:title>
        <dc:date>2011-03-30T06:53:40</dc:date>
        <dc:description>car, clip art, clipart, sports car, </dc:description>
        <dc:source>http://openclipart.org/detail/129919/red-blue-convertible-sports-car-by-marcocretella</dc:source>
        <dc:creator>
          <cc:Agent>
            <dc:title>marcocretella</dc:title>
          </cc:Agent>
        </dc:creator>
        <dc:subject>
          <rdf:Bag>
            <rdf:li>car</rdf:li>
            <rdf:li>clip art</rdf:li>
            <rdf:li>clipart</rdf:li>
            <rdf:li>sports car</rdf:li>
          </rdf:Bag>
        </dc:subject>
      </cc:Work>
      <cc:License rdf:about="http://creativecommons.org/licenses/publicdomain/">
        <cc:permits rdf:resource="http://creativecommons.org/ns#Reproduction"/>
        <cc:permits rdf:resource="http://creativecommons.org/ns#Distribution"/>
        <cc:permits rdf:resource="http://creativecommons.org/ns#DerivativeWorks"/>
      </cc:License>
    </rdf:RDF>
  </metadata>
</svg>
