<?xml version="1.0" encoding="iso-8859-1"?>
<!-- Generator: Adobe Illustrator 19.0.0, SVG Export Plug-In . SVG Version: 6.00 Build 0)  -->
<svg version="1.1" id="Capa_1" xmlns="http://www.w3.org/2000/svg" xmlns:xlink="http://www.w3.org/1999/xlink" x="0px" y="0px"
	 viewBox="0 0 512 512" style="enable-background:new 0 0 512 512;" xml:space="preserve">
<path style="fill:#4DBBEB;" d="M221.866,149.802V91.516c0-3.414,2.767-6.181,6.181-6.181h21.772c3.414,0,6.181,2.767,6.181,6.181
	v58.287h-34.134V149.802z"/>
<path style="fill:#38A1D9;" d="M249.819,85.335h-20.605c3.414,0,6.181,2.767,6.181,6.181v58.287H256V91.516
	C256,88.102,253.233,85.335,249.819,85.335z"/>
<path style="fill:#57555C;" d="M204.801,176.071v-24.823c0-3.414,2.767-6.181,6.181-6.181h55.903c3.414,0,6.181,2.767,6.181,6.181
	v24.823H204.801z"/>
<path style="fill:#4B494F;" d="M266.885,145.067h-20.604c3.414,0,6.181,2.767,6.181,6.181v24.823h20.604v-24.823
	C273.066,147.834,270.299,145.067,266.885,145.067z"/>
<path style="fill:#FEB756;" d="M511.989,363.545v-51.216c0-17.468-13.188-32.117-30.56-33.945l-97.427-13.849l-33.572-73.857
	c-5.538-12.185-17.688-20.009-31.073-20.009H147.809c-12.249,0-23.558,6.563-29.636,17.198L59.734,290.132H17.067
	C7.642,290.132,0,297.774,0,307.2v56.351L511.989,363.545z"/>
<path style="fill:#FA8043;" d="M481.428,278.383l-97.427-13.85l-33.572-73.857c-5.539-12.185-17.688-20.009-31.073-20.009h-20.627
	c13.385,0,25.535,7.823,31.073,20.009l32.191,70.821c0.861,1.895,2.619,3.23,4.676,3.55l94.132,13.336
	c17.372,1.829,30.56,16.478,30.56,33.945l0.034,51.216h20.593v-51.216C511.989,294.861,498.8,280.211,481.428,278.383z"/>
<path style="fill:#85828C;" d="M0.002,386.348v-27.951H512v27.951c0,3.414-2.767,6.181-6.181,6.181H6.183
	C2.769,392.529,0.002,389.761,0.002,386.348z"/>
<g>
	<circle style="fill:#57555C;" cx="119.47" cy="375.459" r="51.199"/>
	<circle style="fill:#57555C;" cx="392.53" cy="375.459" r="51.199"/>
</g>
<g>
	<circle style="fill:#85828C;" cx="119.47" cy="375.459" r="25.599"/>
	<circle style="fill:#85828C;" cx="392.53" cy="375.459" r="25.599"/>
</g>
<g>
	<path style="fill:#57555C;" d="M119.47,363.466c-4.268,0-7.726,3.459-7.726,7.726v8.534c0,4.267,3.458,7.726,7.726,7.726
		c4.268,0,7.726-3.459,7.726-7.726v-8.534C127.196,366.926,123.737,363.466,119.47,363.466z"/>
	<path style="fill:#57555C;" d="M392.534,363.466c-4.268,0-7.726,3.459-7.726,7.726v8.534c0,4.267,3.458,7.726,7.726,7.726
		c4.268,0,7.726-3.459,7.726-7.726v-8.534C400.26,366.926,396.802,363.466,392.534,363.466z"/>
</g>
<path style="fill:#FD3A4E;" d="M0,337.069h27.953c3.414,0,6.181-2.767,6.181-6.181v-13.242c0-3.414-2.767-6.181-6.181-6.181H0
	V337.069z"/>
<g>
	<path style="fill:#C0E3F0;" d="M113.372,196.268h21.045c4.746,0,7.721,5.127,5.367,9.248l-31.941,55.903
		c-1.1,1.925-3.148,3.114-5.367,3.114H74.368L113.372,196.268z"/>
	<path style="fill:#C0E3F0;" d="M352.971,196.268h-19.482c-4.397,0-7.388,4.462-5.717,8.53l22.96,55.903
		c0.952,2.319,3.211,3.833,5.717,3.833h27.552L352.971,196.268z"/>
	<path style="fill:#C0E3F0;" d="M314.668,256.004l-22.96-55.903c-0.952-2.319-3.211-3.833-5.717-3.833H187.66
		c-2.218,0-4.266,1.189-5.367,3.114l-31.941,55.903c-2.355,4.121,0.621,9.248,5.367,9.248H308.95
		C313.347,264.533,316.338,260.071,314.668,256.004z"/>
</g>
<path style="fill:#FA8043;" d="M145.069,270.714l0.203,18.724c-0.119,2.699,1.546,5.127,4.077,6.072
	c32.471,12.109,55.449,43.339,55.449,79.954v17.07h113.37V270.715c0-3.414-2.767-6.181-6.181-6.181H151.249
	C147.836,264.533,145.069,267.301,145.069,270.714z"/>
<path style="fill:#57555C;" d="M491.392,358.397l0.003,27.951c0,3.414-2.767,6.181-6.181,6.181h20.605
	c3.414,0,6.181-2.767,6.181-6.181v-27.951H491.392z"/>
<path style="fill:#DE0B2B;" d="M27.953,311.465H7.348c3.414,0,6.181,2.767,6.181,6.181v13.242c0,3.414-2.767,6.181-6.181,6.181
	h20.605c3.414,0,6.181-2.767,6.181-6.181v-13.242C34.134,314.233,31.366,311.465,27.953,311.465z"/>
<path style="fill:#4DBBEB;" d="M511.989,312.328c0-1.743-0.137-3.456-0.39-5.133h-27.559c-3.414,0-6.181,2.767-6.181,6.181v13.24
	c0,3.414,2.767,6.181,6.181,6.181h27.95V312.328z"/>
<path style="fill:#38A1D9;" d="M511.598,307.195h-20.605c0.253,1.677,0.39,3.39,0.39,5.133v20.469h20.605v-20.469
	C511.989,310.585,511.852,308.872,511.598,307.195z"/>
<g>
	<path style="fill:#A3CFE3;" d="M352.971,196.268h-19.482c-0.378,0-0.742,0.044-1.097,0.107l29.601,65.122
		c0.618,1.359,1.7,2.421,3.019,3.036h18.988l0,0l0,0L352.971,196.268z"/>
	<path style="fill:#A3CFE3;" d="M314.668,256.004l-22.96-55.903c-0.952-2.319-3.211-3.833-5.717-3.833h-20.604
		c2.506,0,4.766,1.514,5.717,3.833l22.96,55.903c1.671,4.067-1.321,8.529-5.717,8.529h20.604
		C313.347,264.533,316.338,260.071,314.668,256.004z"/>
</g>
<g>
	<path style="fill:#57555C;" d="M204.8,392.529h113.37v-34.132H203.086c1.12,5.516,1.714,11.222,1.714,17.067V392.529z"/>
	<path style="fill:#57555C;" d="M221.867,314.926H204.8c-4.268,0-7.726-3.459-7.726-7.726c0-4.267,3.458-7.726,7.726-7.726h17.067
		c4.268,0,7.726,3.459,7.726,7.726C229.593,311.467,226.135,314.926,221.867,314.926z"/>
</g>
<g>
	<path style="fill:#4B494F;" d="M392.534,324.265c-3.528,0-6.974,0.357-10.302,1.037c23.339,4.768,40.897,25.415,40.897,50.163
		s-17.558,45.394-40.897,50.163c3.328,0.68,6.773,1.037,10.302,1.037c28.276,0,51.199-22.923,51.199-51.199
		S420.81,324.265,392.534,324.265z"/>
	<path style="fill:#4B494F;" d="M119.469,324.265c-3.528,0-6.974,0.357-10.302,1.037c23.339,4.768,40.897,25.415,40.897,50.163
		s-17.558,45.394-40.897,50.163c3.327,0.68,6.773,1.037,10.302,1.037c28.276,0,51.199-22.923,51.199-51.199
		S147.745,324.265,119.469,324.265z"/>
</g>
<g>
</g>
<g>
</g>
<g>
</g>
<g>
</g>
<g>
</g>
<g>
</g>
<g>
</g>
<g>
</g>
<g>
</g>
<g>
</g>
<g>
</g>
<g>
</g>
<g>
</g>
<g>
</g>
<g>
</g>
</svg>
